{"glyphs":{"0":{"ha":980,"x_min":61,"x_max":919,"o":"m 248 488 q 494 149 248 149 q 732 488 732 149 q 494 821 732 821 q 248 488 248 821 m 61 484 q 494 977 61 977 q 919 484 919 977 q 494 -7 919 -7 q 61 484 61 -7 z "},"1":{"ha":468,"x_min":68,"x_max":349,"o":"m 170 0 l 170 821 l 68 821 l 68 895 l 349 990 l 349 0 l 170 0 z "},"2":{"ha":800,"x_min":68,"x_max":732,"o":"m 68 0 l 68 136 q 553 692 553 473 q 376 821 553 821 q 95 746 227 821 l 95 909 q 376 977 227 977 q 732 692 732 977 q 344 156 732 441 l 732 156 l 732 0 l 68 0 z "},"3":{"ha":756,"x_min":68,"x_max":715,"o":"m 68 936 q 353 977 203 977 q 715 712 715 977 q 588 492 715 552 q 715 271 715 434 q 353 -7 715 -7 q 68 34 203 -7 l 68 197 q 353 149 203 149 q 536 271 536 149 q 406 414 536 414 l 170 414 l 170 570 l 404 570 q 536 712 536 570 q 353 821 536 821 q 68 773 203 821 l 68 936 z "},"4":{"ha":827,"x_min":41,"x_max":810,"o":"m 710 0 l 530 0 l 530 210 l 41 210 l 41 346 l 437 970 l 630 970 l 246 353 l 530 353 l 530 677 l 710 677 l 710 353 l 810 260 l 810 210 l 710 210 l 710 0 z "},"5":{"ha":787,"x_min":85,"x_max":736,"o":"m 119 970 l 698 970 l 698 827 l 273 827 l 257 589 q 370 604 296 604 q 736 305 736 604 q 356 -7 736 -7 q 85 34 220 -7 l 85 183 q 363 136 220 136 q 556 305 556 136 q 370 461 556 461 q 85 427 217 461 l 119 970 z "},"6":{"ha":848,"x_min":68,"x_max":814,"o":"m 68 373 q 534 999 68 750 l 620 859 q 292 595 381 749 q 458 624 374 624 q 814 326 814 624 q 432 -7 814 -7 q 68 373 68 -7 m 241 377 q 438 136 241 136 q 637 326 637 136 q 452 481 637 481 q 253 449 348 481 q 241 377 241 422 z "},"7":{"ha":793,"x_min":68,"x_max":760,"o":"m 68 970 l 760 970 l 760 827 l 324 0 l 127 0 l 569 814 l 68 814 l 68 970 z "},"8":{"ha":868,"x_min":54,"x_max":814,"o":"m 54 288 q 198 512 54 439 q 81 731 81 576 q 434 979 81 979 q 787 731 787 979 q 667 512 787 576 q 814 288 814 439 q 441 -7 814 -7 q 54 288 54 -7 m 437 583 q 607 711 607 583 q 435 821 607 821 q 261 711 261 821 q 437 583 261 583 m 444 149 q 634 283 634 149 q 435 427 634 427 q 234 283 234 427 q 444 149 234 149 z "},"9":{"ha":858,"x_min":68,"x_max":814,"o":"m 814 599 q 347 -27 814 222 l 262 113 q 590 384 494 222 q 423 348 508 348 q 68 653 68 348 q 450 979 68 979 q 814 599 814 979 m 641 595 q 444 836 641 836 q 245 653 245 836 q 429 490 245 490 q 629 523 534 490 q 641 595 641 550 z "}," ":{"ha":305,"x_min":0,"x_max":0,"o":""},"!":{"ha":383,"x_min":102,"x_max":281,"o":"m 281 970 l 281 251 l 102 251 l 102 970 l 281 970 m 281 166 l 281 0 l 102 0 l 102 166 l 281 166 z "},"\"":{"ha":553,"x_min":68,"x_max":485,"o":"m 485 970 l 465 675 l 339 675 l 319 970 l 485 970 m 234 970 l 214 675 l 88 675 l 68 970 l 234 970 z "},"#":{"ha":1284,"x_min":68,"x_max":1216,"o":"m 545 594 l 484 338 l 739 338 l 800 594 l 545 594 m 273 -3 l 334 233 l 68 233 l 88 338 l 361 338 l 421 594 l 149 594 l 170 699 l 449 699 l 517 966 l 639 966 l 571 699 l 827 699 l 897 970 l 1019 970 l 950 699 l 1216 699 l 1196 594 l 923 594 l 863 338 l 1135 338 l 1114 233 l 835 233 l 774 -3 l 652 -3 l 713 233 l 456 233 l 395 -3 l 273 -3 z "},"$":{"ha":695,"x_min":51,"x_max":654,"o":"m 271 835 l 271 970 l 444 970 l 444 838 q 621 800 536 829 l 621 651 q 363 699 502 699 q 217 624 217 699 q 302 553 217 553 l 417 553 q 654 339 654 553 q 444 121 654 152 l 444 0 l 271 0 l 271 119 q 85 156 170 127 l 85 305 q 359 258 203 258 q 475 332 475 258 q 397 404 475 404 l 268 404 q 51 617 51 404 q 271 835 51 804 z "},"%":{"ha":1019,"x_min":68,"x_max":951,"o":"m 248 0 l 68 0 l 758 970 l 937 970 l 248 0 m 197 774 q 290 675 197 675 q 381 774 381 675 q 290 859 381 859 q 197 774 197 859 m 68 773 q 290 977 68 977 q 510 773 510 977 q 290 557 510 557 q 68 773 68 557 m 637 204 q 731 111 637 111 q 822 204 822 111 q 731 295 822 295 q 637 204 637 295 m 509 203 q 731 413 509 413 q 951 203 951 413 q 731 -7 951 -7 q 509 203 509 -7 z "},"&":{"ha":905,"x_min":68,"x_max":905,"o":"m 68 702 q 414 970 68 970 q 658 936 539 970 l 658 793 q 422 827 539 827 q 248 705 248 827 q 387 563 248 563 l 616 563 l 616 659 l 713 659 l 782 563 l 905 563 l 905 420 l 795 420 l 795 332 q 424 -2 795 -2 q 68 281 68 -2 q 192 493 68 435 q 68 702 68 551 m 388 420 q 248 284 248 420 q 425 142 248 142 q 616 334 616 142 l 616 420 l 388 420 z "},"'":{"ha":302,"x_min":68,"x_max":234,"o":"m 234 970 l 214 675 l 88 675 l 68 970 l 234 970 z "},"(":{"ha":434,"x_min":68,"x_max":383,"o":"m 383 970 q 248 356 248 663 q 383 -258 248 49 l 203 -258 q 68 356 68 49 q 203 970 68 663 l 383 970 z "},")":{"ha":434,"x_min":51,"x_max":366,"o":"m 231 970 q 366 356 366 663 q 231 -258 366 49 l 51 -258 q 186 356 186 49 q 51 970 186 663 l 231 970 z "},"*":{"ha":549,"x_min":68,"x_max":482,"o":"m 222 970 l 328 970 l 308 812 l 450 881 l 482 781 l 328 752 l 435 637 l 352 574 l 275 713 l 199 575 l 115 635 l 224 751 l 68 780 l 100 882 l 243 812 l 222 970 z "},"+":{"ha":644,"x_min":68,"x_max":576,"o":"m 251 427 l 251 610 l 393 610 l 393 427 l 576 427 l 576 285 l 393 285 l 393 102 l 251 102 l 251 285 l 68 285 l 68 427 l 251 427 z "},",":{"ha":315,"x_min":17,"x_max":298,"o":"m 298 125 l 197 -170 l 17 -170 l 119 125 l 298 125 z "},"-":{"ha":475,"x_min":68,"x_max":407,"o":"m 407 427 l 407 285 l 68 285 l 68 427 l 407 427 z "},".":{"ha":315,"x_min":68,"x_max":248,"o":"m 248 166 l 248 0 l 68 0 l 68 166 l 248 166 z "},"/":{"ha":719,"x_min":17,"x_max":702,"o":"m 210 0 l 17 0 l 509 970 l 702 970 l 210 0 z "},":":{"ha":332,"x_min":85,"x_max":264,"o":"m 264 712 l 264 546 l 85 546 l 85 712 l 264 712 m 264 166 l 264 0 l 85 0 l 85 166 l 264 166 z "},";":{"ha":417,"x_min":68,"x_max":349,"o":"m 349 712 l 349 546 l 170 546 l 170 712 l 349 712 m 349 125 l 248 -170 l 68 -170 l 170 125 l 349 125 z "},"<":{"ha":746,"x_min":68,"x_max":678,"o":"m 68 292 l 68 420 l 678 678 l 678 509 l 290 353 l 678 203 l 678 34 l 68 292 z "},"=":{"ha":644,"x_min":68,"x_max":576,"o":"m 576 305 l 576 163 l 68 163 l 68 305 l 576 305 m 576 549 l 576 407 l 68 407 l 68 549 l 576 549 z "},">":{"ha":746,"x_min":68,"x_max":678,"o":"m 68 34 l 68 203 l 456 353 l 68 509 l 68 678 l 678 420 l 678 292 l 68 34 z "},"?":{"ha":756,"x_min":68,"x_max":688,"o":"m 349 166 l 349 0 l 170 0 l 170 166 l 349 166 m 68 936 q 339 970 210 970 q 688 705 688 970 q 349 407 688 407 l 349 251 l 170 251 l 170 549 l 349 549 q 522 705 522 549 q 339 827 522 827 q 68 793 210 827 l 68 936 z "},"@":{"ha":1444,"x_min":68,"x_max":1377,"o":"m 1044 80 q 1099 41 1044 41 q 1197 366 1197 41 q 732 834 1197 834 q 248 366 248 834 q 685 -115 248 -115 l 685 -258 q 68 366 68 -258 q 722 977 68 977 q 1377 366 1377 977 q 1074 -102 1377 -102 q 876 64 883 -102 q 671 0 783 0 q 410 222 410 0 q 720 434 410 434 q 865 420 792 434 l 865 474 q 727 570 865 570 q 468 536 610 570 l 468 678 q 727 712 610 712 q 1044 477 1044 712 l 1044 80 m 865 298 q 720 312 797 312 q 590 224 590 312 q 699 129 590 129 q 865 184 788 129 l 865 298 z "},"A":{"ha":1059,"x_min":17,"x_max":1042,"o":"m 201 0 l 17 0 l 429 970 l 622 970 l 1042 0 l 849 0 l 739 264 l 416 264 l 478 420 l 673 420 l 521 785 l 201 0 z "},"B":{"ha":896,"x_min":102,"x_max":845,"o":"m 102 0 l 102 970 l 556 970 q 833 744 833 970 q 652 507 833 578 q 845 287 845 471 q 542 0 845 0 l 102 0 m 534 156 q 654 278 654 156 q 475 429 654 429 l 421 429 l 421 545 q 645 732 645 583 q 545 814 645 814 l 281 814 l 281 156 l 534 156 z "},"C":{"ha":943,"x_min":68,"x_max":875,"o":"m 875 41 q 590 -7 749 -7 q 68 498 68 -7 q 590 977 68 977 q 875 929 749 977 l 875 766 q 604 821 749 821 q 254 498 254 821 q 604 149 254 149 q 875 203 749 149 l 875 41 z "},"D":{"ha":1014,"x_min":102,"x_max":963,"o":"m 481 156 q 783 511 783 156 q 481 814 783 814 l 281 814 l 281 156 l 481 156 m 102 0 l 102 970 l 481 970 q 963 511 963 970 q 481 0 963 0 l 102 0 z "},"E":{"ha":840,"x_min":102,"x_max":775,"o":"m 766 970 l 766 815 l 280 815 l 280 571 l 743 571 l 743 410 l 278 410 l 278 156 l 775 156 l 775 0 l 102 0 l 102 970 l 766 970 z "},"F":{"ha":789,"x_min":102,"x_max":739,"o":"m 739 970 l 739 815 l 280 815 l 280 571 l 715 571 l 715 410 l 278 410 l 278 0 l 102 0 l 102 970 l 739 970 z "},"G":{"ha":943,"x_min":68,"x_max":875,"o":"m 875 45 q 581 -7 758 -7 q 68 498 68 -7 q 590 977 68 977 q 875 929 749 977 l 875 766 q 604 821 749 821 q 254 498 254 821 q 584 149 254 149 q 695 165 633 149 l 695 448 l 875 448 l 875 45 z "},"H":{"ha":1041,"x_min":102,"x_max":939,"o":"m 102 0 l 102 970 l 281 970 l 281 570 l 760 570 l 760 970 l 939 970 l 939 0 l 760 0 l 760 414 l 281 414 l 281 0 l 102 0 z "},"I":{"ha":383,"x_min":102,"x_max":281,"o":"m 281 970 l 281 0 l 102 0 l 102 970 l 281 970 z "},"J":{"ha":502,"x_min":17,"x_max":400,"o":"m 400 970 l 400 279 q 17 0 400 0 l 17 156 q 220 279 220 156 l 220 970 l 400 970 z "},"K":{"ha":973,"x_min":102,"x_max":1007,"o":"m 281 970 l 281 0 l 102 0 l 102 970 l 281 970 m 964 970 l 550 517 l 1007 0 l 758 0 l 383 453 l 383 570 l 744 970 l 964 970 z "},"L":{"ha":734,"x_min":102,"x_max":667,"o":"m 281 970 l 281 156 l 667 156 l 667 0 l 102 0 l 102 970 l 281 970 z "},"M":{"ha":1221,"x_min":102,"x_max":1119,"o":"m 102 0 l 102 970 l 288 970 l 617 234 l 939 970 l 1119 970 l 1119 0 l 953 0 l 953 675 l 690 0 l 536 0 l 268 675 l 268 0 l 102 0 z "},"N":{"ha":1068,"x_min":102,"x_max":966,"o":"m 102 0 l 102 970 l 281 970 l 793 263 l 793 970 l 966 970 l 966 0 l 787 0 l 275 722 l 275 0 l 102 0 z "},"O":{"ha":1102,"x_min":68,"x_max":1034,"o":"m 254 488 q 555 149 254 149 q 848 488 848 149 q 555 821 848 821 q 254 488 254 821 m 68 484 q 555 977 68 977 q 1034 484 1034 977 q 555 -7 1034 -7 q 68 484 90 -7 z "},"P":{"ha":850,"x_min":102,"x_max":833,"o":"m 102 0 l 102 970 l 536 970 q 833 696 833 970 q 427 338 833 400 l 401 498 q 645 691 645 542 q 524 812 645 812 l 281 812 l 281 0 l 102 0 z "},"Q":{"ha":1102,"x_min":68,"x_max":1034,"o":"m 254 488 q 555 149 254 149 q 848 488 848 149 q 555 821 848 821 q 254 488 254 821 m 68 484 q 555 977 68 977 q 1034 484 1034 977 q 732 5 1034 78 l 890 -178 l 748 -286 l 528 -7 q 68 484 90 -7 z "},"R":{"ha":899,"x_min":102,"x_max":916,"o":"m 102 1 l 102 970 l 543 970 q 840 710 840 970 q 608 419 840 534 l 916 0 l 689 0 l 394 422 l 394 505 q 652 705 652 549 q 531 812 652 812 l 285 812 l 285 1 l 102 1 z "},"S":{"ha":868,"x_min":51,"x_max":817,"o":"m 85 41 l 85 203 q 414 149 231 149 q 637 298 637 149 q 500 407 637 407 l 349 407 q 51 678 51 407 q 475 977 51 977 q 783 929 637 977 l 783 766 q 475 821 637 821 q 231 678 231 821 q 349 570 231 570 l 500 570 q 817 298 817 570 q 414 -7 817 -7 q 85 41 231 -7 z "},"T":{"ha":736,"x_min":0,"x_max":736,"o":"m 736 970 l 736 814 l 458 814 l 458 0 l 278 0 l 278 814 l 0 814 l 0 970 l 736 970 z "},"U":{"ha":1038,"x_min":102,"x_max":936,"o":"m 102 381 l 102 970 l 281 970 l 281 381 q 519 149 281 149 q 756 381 756 149 l 756 970 l 936 970 l 936 381 q 519 -7 936 -7 q 102 381 102 -7 z "},"V":{"ha":1025,"x_min":0,"x_max":1025,"o":"m 1025 970 l 600 0 l 407 0 l 0 970 l 214 970 l 514 227 l 814 970 l 1025 970 z "},"W":{"ha":1282,"x_min":24,"x_max":1258,"o":"m 24 970 l 206 970 l 310 273 l 562 970 l 735 970 l 971 300 l 1081 970 l 1258 970 l 1076 0 l 905 0 l 638 761 l 352 0 l 183 0 l 24 970 z "},"X":{"ha":1019,"x_min":17,"x_max":1007,"o":"m 399 485 l 17 970 l 244 970 l 512 616 l 780 970 l 1007 970 l 626 485 l 1007 0 l 780 0 l 512 354 l 244 0 l 17 0 l 399 485 z "},"Y":{"ha":882,"x_min":17,"x_max":926,"o":"m 17 970 l 210 970 l 483 503 l 739 970 l 926 970 l 569 339 l 569 0 l 389 0 l 389 339 l 17 970 z "},"Z":{"ha":848,"x_min":85,"x_max":804,"o":"m 804 970 l 804 814 l 288 156 l 804 156 l 804 0 l 85 0 l 85 156 l 623 814 l 98 814 l 98 970 l 804 970 z "},"[":{"ha":461,"x_min":68,"x_max":427,"o":"m 427 970 l 427 827 l 248 827 l 248 -115 l 427 -115 l 427 -258 l 68 -258 l 68 970 l 427 970 z "},"\\":{"ha":719,"x_min":17,"x_max":702,"o":"m 17 970 l 210 970 l 702 0 l 509 0 l 17 970 z "},"]":{"ha":461,"x_min":34,"x_max":393,"o":"m 393 970 l 393 -258 l 34 -258 l 34 -115 l 214 -115 l 214 827 l 34 827 l 34 970 l 393 970 z "},"^":{"ha":712,"x_min":34,"x_max":678,"o":"m 305 970 l 407 970 l 678 475 l 522 475 l 353 795 l 190 475 l 34 475 l 305 970 z "},"_":{"ha":712,"x_min":17,"x_max":695,"o":"m 695 0 l 695 -142 l 17 -142 l 17 0 l 695 0 z "},"`":{"ha":450,"x_min":68,"x_max":382,"o":"m 382 794 l 230 794 l 68 970 l 284 970 l 382 794 z "},"a":{"ha":770,"x_min":51,"x_max":685,"o":"m 51 222 q 360 434 51 434 q 505 420 433 434 l 505 474 q 368 570 505 570 q 109 536 251 570 l 109 678 q 368 712 251 712 q 685 477 685 712 l 685 0 l 581 0 l 517 64 q 312 0 424 0 q 51 222 51 0 m 505 298 q 360 312 437 312 q 231 224 231 312 q 339 129 231 129 q 505 184 429 129 l 505 298 z "},"b":{"ha":799,"x_min":85,"x_max":748,"o":"m 264 165 q 408 145 326 145 q 570 375 570 145 q 430 563 570 563 q 264 526 339 563 l 264 165 m 85 970 l 264 970 l 264 658 q 444 712 345 712 q 748 370 748 712 q 400 0 748 0 q 85 29 254 0 l 85 970 z "},"c":{"ha":644,"x_min":47,"x_max":610,"o":"m 610 20 q 427 0 522 0 q 47 370 47 0 q 427 712 47 712 q 610 692 522 712 l 610 549 q 441 570 522 570 q 227 370 227 570 q 441 142 227 142 q 610 163 522 142 l 610 20 z "},"d":{"ha":800,"x_min":51,"x_max":715,"o":"m 536 526 q 396 563 480 563 q 229 375 229 563 q 403 152 229 152 q 536 172 473 152 l 536 526 m 715 43 q 396 0 552 0 q 51 370 51 0 q 389 712 51 712 q 536 678 460 712 l 536 970 l 715 970 l 715 43 z "},"e":{"ha":760,"x_min":51,"x_max":709,"o":"m 385 712 q 709 381 709 712 q 703 293 709 337 l 231 293 q 452 142 231 142 q 667 163 559 142 l 667 20 q 438 0 573 0 q 51 364 51 0 q 385 712 51 712 m 231 418 l 534 418 l 534 423 q 385 571 534 571 q 231 418 243 571 z "},"f":{"ha":503,"x_min":85,"x_max":564,"o":"m 85 0 l 85 712 q 405 1005 85 1005 q 564 978 492 1005 l 564 836 q 418 863 496 863 q 264 712 264 863 l 478 712 l 478 570 l 264 570 l 264 0 l 85 0 z "},"g":{"ha":805,"x_min":51,"x_max":720,"o":"m 541 551 q 415 567 496 567 q 229 361 229 567 q 389 163 229 163 q 541 199 467 163 l 541 551 m 720 54 q 345 -258 720 -258 q 112 -224 214 -258 l 112 -81 q 347 -115 216 -115 q 541 47 541 -115 q 368 14 460 14 q 51 360 51 14 q 420 712 51 712 q 720 683 545 712 l 720 54 z "},"h":{"ha":817,"x_min":85,"x_max":732,"o":"m 85 0 l 85 970 l 264 970 l 264 621 q 479 712 349 712 q 732 449 732 712 l 732 0 l 553 0 l 553 449 q 435 567 553 567 q 264 497 348 567 l 264 0 l 85 0 z "},"i":{"ha":349,"x_min":85,"x_max":264,"o":"m 264 970 l 264 827 l 85 827 l 85 970 l 264 970 m 264 712 l 264 0 l 85 0 l 85 712 l 264 712 z "},"j":{"ha":349,"x_min":0,"x_max":264,"o":"m 264 970 l 264 827 l 85 827 l 85 970 l 264 970 m 264 712 l 264 54 q 141 -297 264 -161 l 0 -199 q 85 54 85 -107 l 85 712 l 264 712 z "},"k":{"ha":818,"x_min":85,"x_max":801,"o":"m 85 0 l 85 970 l 264 970 l 264 656 q 497 712 375 712 q 770 507 770 712 q 580 273 770 357 l 801 0 l 581 0 l 395 254 l 395 338 q 590 473 590 379 q 461 570 590 570 q 264 513 371 570 l 264 0 l 85 0 z "},"l":{"ha":349,"x_min":85,"x_max":264,"o":"m 264 970 l 264 0 l 85 0 l 85 970 l 264 970 z "},"m":{"ha":1217,"x_min":85,"x_max":1133,"o":"m 85 0 l 85 712 l 224 712 l 245 609 q 475 712 340 712 q 659 614 609 712 q 887 712 768 712 q 1133 441 1133 712 l 1133 0 l 953 0 l 953 448 q 846 567 953 567 q 692 495 766 567 l 692 0 l 512 0 l 512 446 q 413 567 512 567 q 264 495 334 567 l 264 0 l 85 0 z "},"n":{"ha":817,"x_min":85,"x_max":732,"o":"m 85 0 l 85 712 l 224 712 l 246 608 q 479 712 349 712 q 732 449 732 712 l 732 0 l 553 0 l 553 449 q 435 567 553 567 q 264 497 348 567 l 264 0 l 85 0 z "},"o":{"ha":807,"x_min":51,"x_max":756,"o":"m 231 359 q 404 136 231 136 q 576 359 576 136 q 404 576 576 576 q 231 359 231 576 m 51 356 q 404 714 51 714 q 756 356 756 714 q 404 -1 756 -1 q 51 356 52 -1 z "},"p":{"ha":798,"x_min":85,"x_max":747,"o":"m 264 186 q 409 149 332 149 q 570 375 570 149 q 392 567 570 567 q 264 557 315 567 l 264 186 m 85 683 q 385 712 227 712 q 747 374 747 712 q 410 0 747 0 q 264 34 338 0 l 264 -258 l 85 -258 l 85 683 z "},"q":{"ha":805,"x_min":51,"x_max":720,"o":"m 541 551 q 422 567 476 567 q 229 361 229 567 q 396 149 229 149 q 541 186 480 149 l 541 551 m 720 -258 l 541 -258 l 541 34 q 375 0 467 0 q 51 360 51 0 q 420 712 51 712 q 720 683 558 712 l 720 -258 z "},"r":{"ha":461,"x_min":85,"x_max":444,"o":"m 85 0 l 85 712 l 224 712 l 246 621 q 444 712 340 712 l 444 567 q 264 484 344 567 l 264 0 l 85 0 z "},"s":{"ha":695,"x_min":51,"x_max":654,"o":"m 85 34 l 85 183 q 359 136 203 136 q 475 210 475 136 q 397 281 475 281 l 268 281 q 51 495 51 281 q 368 719 51 719 q 621 678 502 719 l 621 529 q 363 576 502 576 q 217 502 217 576 q 302 431 217 431 l 417 431 q 654 217 654 431 q 352 -7 654 -7 q 85 34 203 -7 z "},"t":{"ha":451,"x_min":75,"x_max":414,"o":"m 75 827 l 208 827 l 235 712 l 414 712 l 414 570 l 254 570 l 254 242 q 340 142 254 142 l 414 142 l 414 0 l 254 0 q 75 192 75 0 l 75 827 z "},"u":{"ha":810,"x_min":85,"x_max":726,"o":"m 726 712 l 726 0 l 585 0 l 564 91 q 303 0 441 0 q 85 258 85 0 l 85 712 l 264 712 l 264 263 q 368 145 264 145 q 546 215 455 145 l 546 712 l 726 712 z "},"v":{"ha":732,"x_min":0,"x_max":732,"o":"m 0 712 l 190 712 l 363 214 l 543 712 l 732 712 l 443 0 l 272 0 l 0 712 z "},"w":{"ha":1084,"x_min":24,"x_max":1061,"o":"m 24 712 l 205 712 l 297 216 l 462 712 l 616 712 l 793 216 l 873 712 l 1061 712 l 875 0 l 706 0 l 538 505 l 369 0 l 197 0 l 24 712 z "},"x":{"ha":732,"x_min":0,"x_max":732,"o":"m 267 356 l 0 712 l 200 712 l 366 490 l 532 712 l 732 712 l 467 356 l 732 0 l 532 0 l 366 222 l 200 0 l 0 0 l 267 356 z "},"y":{"ha":733,"x_min":0,"x_max":733,"o":"m 0 712 l 191 712 l 370 199 l 546 712 l 733 712 l 437 -21 q 186 -297 359 -215 l 99 -174 q 273 -4 218 -122 l 0 712 z "},"z":{"ha":671,"x_min":68,"x_max":631,"o":"m 81 712 l 631 712 l 631 570 l 267 136 l 617 136 l 617 0 l 68 0 l 68 136 l 437 570 l 81 570 l 81 712 z "},"{":{"ha":512,"x_min":68,"x_max":478,"o":"m 478 970 q 390 646 390 850 q 220 356 390 407 q 390 66 390 305 q 478 -258 390 -138 l 298 -258 q 210 66 210 -138 q 68 278 210 278 l 68 434 q 210 646 210 434 q 298 970 210 850 l 478 970 z "},"|":{"ha":383,"x_min":102,"x_max":281,"o":"m 281 970 l 281 -258 l 102 -258 l 102 970 l 281 970 z "},"}":{"ha":512,"x_min":34,"x_max":444,"o":"m 214 970 q 302 646 302 850 q 444 434 302 434 l 444 278 q 302 66 302 278 q 214 -258 302 -138 l 34 -258 q 122 66 122 -138 q 237 356 122 305 q 122 646 122 407 q 34 970 122 850 l 214 970 z "},"~":{"ha":644,"x_min":68,"x_max":576,"o":"m 68 414 q 178 455 107 455 q 315 427 236 455 q 456 400 395 400 q 576 441 530 400 l 576 298 q 467 258 537 258 q 329 285 408 258 q 189 313 250 313 q 68 271 115 313 l 68 414 z "},"Ä":{"ha":1059,"x_min":17,"x_max":1042,"o":"m 201 0 l 17 0 l 429 970 l 622 970 l 1042 0 l 849 0 l 739 264 l 416 264 l 478 420 l 673 420 l 521 785 l 201 0 m 718 1227 l 718 1099 l 572 1099 l 572 1227 l 718 1227 m 488 1227 l 488 1099 l 342 1099 l 342 1227 l 488 1227 z "},"Å":{"ha":1059,"x_min":17,"x_max":1042,"o":"m 526 1000 q 617 1093 617 1000 q 526 1183 617 1183 q 433 1093 433 1183 q 526 1000 433 1000 m 201 0 l 17 0 l 429 970 l 431 970 q 372 1091 372 1003 q 526 1234 372 1234 q 678 1091 678 1234 q 620 970 678 1003 l 622 970 l 1042 0 l 849 0 l 739 264 l 416 264 l 478 420 l 673 420 l 521 785 l 201 0 z "},"Ç":{"ha":943,"x_min":68,"x_max":875,"o":"m 488 -1 q 68 498 68 45 q 590 977 68 977 q 875 929 749 977 l 875 766 q 604 821 749 821 q 254 498 254 821 q 604 149 254 149 q 875 203 749 149 l 875 41 q 595 -7 751 -6 l 570 -52 q 715 -162 715 -52 q 532 -286 715 -286 q 385 -252 458 -286 l 385 -165 q 532 -199 458 -199 q 605 -162 605 -199 q 549 -132 605 -132 l 425 -132 l 488 -1 z "},"É":{"ha":840,"x_min":102,"x_max":775,"o":"m 766 970 l 766 815 l 280 815 l 280 571 l 743 571 l 743 410 l 278 410 l 278 156 l 775 156 l 775 0 l 102 0 l 102 970 l 766 970 m 418 1227 l 634 1227 l 472 1052 l 320 1052 l 418 1227 z "},"Ñ":{"ha":1095,"x_min":102,"x_max":966,"o":"m 102 0 l 102 970 l 281 970 l 793 263 l 793 970 l 966 970 l 966 0 l 787 0 l 275 722 l 275 0 l 102 0 m 378 1196 q 467 1227 419 1227 q 541 1210 502 1227 q 618 1192 581 1192 q 718 1223 669 1192 l 718 1081 q 629 1050 677 1050 q 555 1067 594 1050 q 477 1085 515 1085 q 378 1054 427 1085 l 378 1196 z "},"Ö":{"ha":1102,"x_min":68,"x_max":1034,"o":"m 254 488 q 555 149 254 149 q 848 488 848 149 q 555 821 848 821 q 254 488 254 821 m 68 484 q 555 977 68 977 q 1034 484 1034 977 q 555 -7 1034 -7 q 68 484 90 -7 m 739 1227 l 739 1099 l 593 1099 l 593 1227 l 739 1227 m 509 1227 l 509 1099 l 363 1099 l 363 1227 l 509 1227 z "},"Ü":{"ha":1038,"x_min":102,"x_max":936,"o":"m 102 381 l 102 970 l 281 970 l 281 381 q 519 149 281 149 q 756 381 756 149 l 756 970 l 936 970 l 936 381 q 519 -7 936 -7 q 102 381 102 -7 m 707 1227 l 707 1099 l 562 1099 l 562 1227 l 707 1227 m 477 1227 l 477 1099 l 331 1099 l 331 1227 l 477 1227 z "},"á":{"ha":770,"x_min":51,"x_max":685,"o":"m 51 222 q 360 434 51 434 q 505 420 433 434 l 505 474 q 368 570 505 570 q 109 536 251 570 l 109 678 q 368 712 251 712 q 685 477 685 712 l 685 0 l 581 0 l 517 64 q 312 0 424 0 q 51 222 51 0 m 505 298 q 360 312 437 312 q 231 224 231 312 q 339 129 231 129 q 505 184 429 129 l 505 298 m 368 970 l 584 970 l 422 794 l 270 794 l 368 970 z "},"à":{"ha":770,"x_min":51,"x_max":685,"o":"m 51 222 q 360 434 51 434 q 505 420 433 434 l 505 474 q 368 570 505 570 q 109 536 251 570 l 109 678 q 368 712 251 712 q 685 477 685 712 l 685 0 l 581 0 l 517 64 q 312 0 424 0 q 51 222 51 0 m 505 298 q 360 312 437 312 q 231 224 231 312 q 339 129 231 129 q 505 184 429 129 l 505 298 m 486 794 l 334 794 l 172 970 l 389 970 l 486 794 z "},"â":{"ha":770,"x_min":51,"x_max":685,"o":"m 51 222 q 360 434 51 434 q 505 420 433 434 l 505 474 q 368 570 505 570 q 109 536 251 570 l 109 678 q 368 712 251 712 q 685 477 685 712 l 685 0 l 581 0 l 517 64 q 312 0 424 0 q 51 222 51 0 m 505 298 q 360 312 437 312 q 231 224 231 312 q 339 129 231 129 q 505 184 429 129 l 505 298 m 331 970 l 433 970 l 551 793 l 429 793 l 382 882 l 334 793 l 212 793 l 331 970 z "},"ä":{"ha":770,"x_min":51,"x_max":685,"o":"m 51 222 q 360 434 51 434 q 505 420 433 434 l 505 474 q 368 570 505 570 q 109 536 251 570 l 109 678 q 368 712 251 712 q 685 477 685 712 l 685 0 l 581 0 l 517 64 q 312 0 424 0 q 51 222 51 0 m 505 298 q 360 312 437 312 q 231 224 231 312 q 339 129 231 129 q 505 184 429 129 l 505 298 m 570 970 l 570 841 l 424 841 l 424 970 l 570 970 m 339 970 l 339 841 l 193 841 l 193 970 l 339 970 z "},"ã":{"ha":770,"x_min":51,"x_max":685,"o":"m 51 222 q 360 434 51 434 q 505 420 433 434 l 505 474 q 368 570 505 570 q 109 536 251 570 l 109 678 q 368 712 251 712 q 685 477 685 712 l 685 0 l 581 0 l 517 64 q 312 0 424 0 q 51 222 51 0 m 505 298 q 360 312 437 312 q 231 224 231 312 q 339 129 231 129 q 505 184 429 129 l 505 298 m 212 939 q 300 970 253 970 q 375 952 336 970 q 452 935 414 935 q 551 966 503 935 l 551 823 q 463 792 511 792 q 389 810 428 792 q 311 827 349 827 q 212 796 260 827 l 212 939 z "},"å":{"ha":770,"x_min":51,"x_max":685,"o":"m 51 222 q 360 434 51 434 q 505 420 433 434 l 505 474 q 368 570 505 570 q 109 536 251 570 l 109 678 q 368 712 251 712 q 685 477 685 712 l 685 0 l 581 0 l 517 64 q 312 0 424 0 q 51 222 51 0 m 505 298 q 360 312 437 312 q 231 224 231 312 q 339 129 231 129 q 505 184 429 129 l 505 298 m 286 924 q 380 831 286 831 q 471 924 471 831 q 380 1015 471 1015 q 286 924 286 1015 m 225 923 q 380 1065 225 1065 q 532 923 532 1065 q 380 781 532 781 q 225 923 225 781 z "},"ç":{"ha":644,"x_min":47,"x_max":610,"o":"m 307 11 q 47 370 47 64 q 427 712 47 712 q 610 692 522 712 l 610 549 q 441 570 522 570 q 227 370 227 570 q 441 142 227 142 q 610 163 522 142 l 610 20 q 427 0 522 0 l 411 0 l 383 -52 q 528 -162 528 -52 q 345 -286 528 -286 q 198 -252 271 -286 l 198 -165 q 345 -199 271 -199 q 418 -162 418 -199 q 361 -132 418 -132 l 237 -132 l 307 11 z "},"é":{"ha":760,"x_min":51,"x_max":709,"o":"m 385 712 q 709 381 709 712 q 703 293 709 337 l 231 293 q 452 142 231 142 q 667 163 559 142 l 667 20 q 438 0 573 0 q 51 364 51 0 q 385 712 51 712 m 231 418 l 534 418 l 534 423 q 385 571 534 571 q 231 418 243 571 m 380 970 l 596 970 l 434 794 l 282 794 l 380 970 z "},"è":{"ha":760,"x_min":51,"x_max":709,"o":"m 385 712 q 709 381 709 712 q 703 293 709 337 l 231 293 q 452 142 231 142 q 667 163 559 142 l 667 20 q 438 0 573 0 q 51 364 51 0 q 385 712 51 712 m 231 418 l 534 418 l 534 423 q 385 571 534 571 q 231 418 243 571 m 492 794 l 340 794 l 178 970 l 394 970 l 492 794 z "},"ê":{"ha":760,"x_min":51,"x_max":709,"o":"m 385 712 q 709 381 709 712 q 703 293 709 337 l 231 293 q 452 142 231 142 q 667 163 559 142 l 667 20 q 438 0 573 0 q 51 364 51 0 q 385 712 51 712 m 231 418 l 534 418 l 534 423 q 385 571 534 571 q 231 418 243 571 m 336 970 l 437 970 l 556 793 l 434 793 l 387 882 l 339 793 l 217 793 l 336 970 z "},"ë":{"ha":760,"x_min":51,"x_max":709,"o":"m 385 712 q 709 381 709 712 q 703 293 709 337 l 231 293 q 452 142 231 142 q 667 163 559 142 l 667 20 q 438 0 573 0 q 51 364 51 0 q 385 712 51 712 m 231 418 l 534 418 l 534 423 q 385 571 534 571 q 231 418 243 571 m 575 970 l 575 841 l 429 841 l 429 970 l 575 970 m 345 970 l 345 841 l 199 841 l 199 970 l 345 970 z "},"í":{"ha":349,"x_min":70,"x_max":384,"o":"m 264 712 l 264 0 l 85 0 l 85 712 l 264 712 m 168 970 l 384 970 l 222 794 l 70 794 l 168 970 z "},"ì":{"ha":349,"x_min":-35,"x_max":279,"o":"m 264 712 l 264 0 l 85 0 l 85 712 l 264 712 m 279 794 l 127 794 l -35 970 l 182 970 l 279 794 z "},"î":{"ha":349,"x_min":5,"x_max":345,"o":"m 265 712 l 265 0 l 85 0 l 85 712 l 265 712 m 124 970 l 226 970 l 345 793 l 222 793 l 175 882 l 127 793 l 5 793 l 124 970 z "},"ï":{"ha":349,"x_min":-14,"x_max":363,"o":"m 264 712 l 264 0 l 85 0 l 85 712 l 264 712 m 363 970 l 363 841 l 217 841 l 217 970 l 363 970 m 132 970 l 132 841 l -14 841 l -14 970 l 132 970 z "},"ñ":{"ha":817,"x_min":85,"x_max":732,"o":"m 85 0 l 85 712 l 224 712 l 246 608 q 479 712 349 712 q 732 449 732 712 l 732 0 l 553 0 l 553 449 q 435 567 553 567 q 264 497 348 567 l 264 0 l 85 0 m 253 939 q 341 970 294 970 q 416 952 376 970 q 493 935 455 935 q 592 966 544 935 l 592 823 q 504 792 551 792 q 429 810 469 792 q 352 827 390 827 q 253 796 301 827 l 253 939 z "},"ó":{"ha":807,"x_min":51,"x_max":756,"o":"m 231 359 q 404 136 231 136 q 576 359 576 136 q 404 576 576 576 q 231 359 231 576 m 51 356 q 404 714 51 714 q 756 356 756 714 q 404 -1 756 -1 q 51 356 52 -1 m 397 970 l 613 970 l 451 794 l 299 794 l 397 970 z "},"ò":{"ha":807,"x_min":51,"x_max":756,"o":"m 231 359 q 404 136 231 136 q 576 359 576 136 q 404 576 576 576 q 231 359 231 576 m 51 356 q 404 714 51 714 q 756 356 756 714 q 404 -1 756 -1 q 51 356 52 -1 m 508 794 l 356 794 l 194 970 l 410 970 l 508 794 z "},"ô":{"ha":807,"x_min":51,"x_max":756,"o":"m 231 359 q 404 136 231 136 q 576 359 576 136 q 404 576 576 576 q 231 359 231 576 m 51 356 q 404 714 51 714 q 756 356 756 714 q 404 -1 756 -1 q 51 356 52 -1 m 353 970 l 454 970 l 573 793 l 451 793 l 404 882 l 356 793 l 234 793 l 353 970 z "},"ö":{"ha":807,"x_min":51,"x_max":756,"o":"m 231 359 q 404 136 231 136 q 576 359 576 136 q 404 576 576 576 q 231 359 231 576 m 51 356 q 404 714 51 714 q 756 356 756 714 q 404 -1 756 -1 q 51 356 52 -1 m 592 970 l 592 841 l 446 841 l 446 970 l 592 970 m 361 970 l 361 841 l 216 841 l 216 970 l 361 970 z "},"õ":{"ha":807,"x_min":51,"x_max":756,"o":"m 231 359 q 404 136 231 136 q 576 359 576 136 q 404 576 576 576 q 231 359 231 576 m 51 356 q 404 714 51 714 q 756 356 756 714 q 404 -1 756 -1 q 51 356 52 -1 m 234 939 q 322 970 275 970 q 397 952 357 970 q 474 935 436 935 q 573 966 525 935 l 573 823 q 485 792 532 792 q 410 810 450 792 q 333 827 371 827 q 234 796 282 827 l 234 939 z "},"ú":{"ha":810,"x_min":85,"x_max":726,"o":"m 726 712 l 726 0 l 585 0 l 564 91 q 303 0 441 0 q 85 258 85 0 l 85 712 l 264 712 l 264 263 q 368 145 264 145 q 546 215 455 145 l 546 712 l 726 712 m 398 970 l 614 970 l 452 794 l 300 794 l 398 970 z "},"ù":{"ha":810,"x_min":85,"x_max":726,"o":"m 726 712 l 726 0 l 585 0 l 564 91 q 303 0 441 0 q 85 258 85 0 l 85 712 l 264 712 l 264 263 q 368 145 264 145 q 546 215 455 145 l 546 712 l 726 712 m 510 794 l 358 794 l 196 970 l 412 970 l 510 794 z "},"û":{"ha":810,"x_min":85,"x_max":726,"o":"m 726 712 l 726 0 l 585 0 l 564 91 q 303 0 441 0 q 85 258 85 0 l 85 712 l 264 712 l 264 263 q 368 145 264 145 q 546 215 455 145 l 546 712 l 726 712 m 355 970 l 456 970 l 575 793 l 453 793 l 406 882 l 358 793 l 236 793 l 355 970 z "},"ü":{"ha":810,"x_min":85,"x_max":726,"o":"m 726 712 l 726 0 l 585 0 l 564 91 q 303 0 441 0 q 85 258 85 0 l 85 712 l 264 712 l 264 263 q 368 145 264 145 q 546 215 455 145 l 546 712 l 726 712 m 593 970 l 593 841 l 448 841 l 448 970 l 593 970 m 363 970 l 363 841 l 217 841 l 217 970 l 363 970 z "},"†":{"ha":756,"x_min":34,"x_max":722,"o":"m 471 970 l 471 685 l 722 685 l 722 529 l 471 529 l 471 0 l 292 0 l 292 529 l 34 529 l 34 685 l 292 685 l 292 970 l 471 970 z "},"°":{"ha":591,"x_min":68,"x_max":524,"o":"m 197 754 q 297 654 197 654 q 395 754 395 654 q 297 852 395 852 q 197 754 197 852 m 68 753 q 297 970 68 970 q 524 753 524 970 q 297 536 524 536 q 68 753 68 536 z "},"¢":{"ha":665,"x_min":41,"x_max":631,"o":"m 332 834 l 332 970 l 505 970 l 505 839 q 631 821 572 834 l 631 678 q 448 699 543 699 q 220 498 220 699 q 448 271 220 271 q 631 292 543 271 l 631 149 q 505 131 572 136 l 505 0 l 332 0 l 332 136 q 41 498 41 180 q 332 834 41 793 z "},"£":{"ha":825,"x_min":68,"x_max":758,"o":"m 68 123 q 194 280 194 174 q 142 477 194 359 q 90 696 90 595 q 468 977 90 977 q 758 909 651 977 l 758 746 q 463 834 650 834 q 277 698 277 834 q 301 563 277 600 l 563 563 l 563 420 l 350 420 q 376 282 376 350 q 333 161 376 189 q 366 164 348 164 q 511 135 423 164 q 579 123 544 123 q 758 190 664 123 l 758 34 q 565 -23 676 -23 q 429 -4 501 -23 q 262 18 341 18 q 68 -20 158 18 l 68 123 z "},"§":{"ha":739,"x_min":68,"x_max":671,"o":"m 102 27 l 102 176 q 349 136 220 136 q 492 197 492 136 q 387 264 492 264 l 339 264 q 68 475 68 264 q 157 621 68 582 q 68 773 68 662 q 385 977 68 977 q 637 943 519 977 l 637 793 q 385 834 519 834 q 234 773 234 834 q 339 705 234 705 l 387 705 q 671 497 671 705 q 596 347 671 395 q 671 197 671 310 q 349 -7 671 -7 q 102 27 220 -7 m 234 486 q 339 406 234 406 l 387 406 q 492 477 492 406 q 387 564 492 564 l 339 564 q 234 486 234 564 z "},"•":{"ha":427,"x_min":68,"x_max":359,"o":"m 68 492 q 214 637 68 637 q 359 492 359 637 q 214 346 359 346 q 68 492 68 346 z "},"¶":{"ha":646,"x_min":0,"x_max":646,"o":"m 300 -294 l 300 365 q 0 669 0 365 q 300 970 0 970 l 646 970 l 646 909 l 545 909 l 545 -294 l 477 -294 l 477 909 l 368 909 l 368 -294 l 300 -294 z "},"ß":{"ha":825,"x_min":85,"x_max":791,"o":"m 85 0 l 85 650 q 427 968 85 968 q 745 712 745 968 l 745 621 q 539 493 539 585 q 665 407 539 445 q 791 225 791 368 q 503 0 791 0 l 359 0 l 359 142 l 505 142 q 604 212 604 142 q 485 318 604 280 q 366 491 366 357 q 562 712 366 625 q 422 825 562 825 q 264 648 264 825 l 264 0 l 85 0 z "},"®":{"ha":789,"x_min":102,"x_max":687,"o":"m 274 513 l 274 876 l 429 876 q 533 789 533 876 q 431 684 533 718 l 556 513 l 494 513 l 378 676 l 378 707 q 483 787 483 724 q 425 838 483 838 l 321 838 l 321 513 l 274 513 m 151 695 q 393 450 151 450 q 637 695 637 450 q 393 945 637 945 q 151 695 151 945 m 102 694 q 393 983 102 983 q 687 694 687 983 q 393 412 687 412 q 102 694 110 412 z "},"©":{"ha":1211,"x_min":102,"x_max":1109,"o":"m 173 488 q 595 54 173 54 q 1038 488 1038 54 q 609 916 1038 916 q 173 488 173 916 m 102 490 q 609 977 102 977 q 1109 490 1109 977 q 609 -7 1109 -7 q 102 490 102 -7 m 802 228 q 606 193 718 193 q 323 494 323 193 q 606 776 323 776 q 802 741 718 776 l 802 675 q 615 714 718 714 q 395 494 395 714 q 615 255 395 255 q 802 294 718 255 l 802 228 z "},"™":{"ha":1089,"x_min":102,"x_max":987,"o":"m 448 970 l 448 922 l 304 922 l 304 513 l 245 513 l 245 922 l 102 922 l 102 970 l 448 970 m 509 513 l 509 970 l 583 970 l 751 589 l 916 970 l 987 970 l 987 513 l 935 513 l 935 882 l 772 513 l 726 513 l 561 882 l 561 513 l 509 513 z "},"´":{"ha":450,"x_min":68,"x_max":382,"o":"m 165 970 l 382 970 l 220 794 l 68 794 l 165 970 z "},"¨":{"ha":512,"x_min":68,"x_max":444,"o":"m 444 970 l 444 841 l 298 841 l 298 970 l 444 970 m 214 970 l 214 841 l 68 841 l 68 970 l 214 970 z "},"Æ":{"ha":1305,"x_min":17,"x_max":1221,"o":"m 551 407 l 597 264 l 313 264 l 208 0 l 17 0 l 429 970 l 1207 970 l 1207 814 l 673 814 l 781 570 l 1183 570 l 1183 414 l 848 414 l 961 156 l 1221 156 l 1221 0 l 829 0 l 517 776 l 368 407 l 551 407 z "},"Ø":{"ha":1102,"x_min":68,"x_max":1034,"o":"m 404 179 q 555 149 466 149 q 848 488 848 149 q 800 702 848 622 l 404 179 m 301 274 l 695 795 q 555 821 637 821 q 254 488 254 821 q 301 274 254 355 m 301 44 l 268 0 l 94 0 l 190 127 q 68 484 78 250 q 555 977 68 977 q 800 932 699 977 l 828 970 l 1003 970 l 915 853 q 1034 484 1034 730 q 555 -7 1034 -7 q 301 44 405 -7 z "},"±":{"ha":644,"x_min":68,"x_max":576,"o":"m 251 529 l 251 712 l 393 712 l 393 529 l 576 529 l 576 387 l 393 387 l 393 203 l 251 203 l 251 387 l 68 387 l 68 529 l 251 529 m 576 142 l 576 0 l 68 0 l 68 142 l 576 142 z "},"¥":{"ha":848,"x_min":34,"x_max":814,"o":"m 34 970 l 220 970 l 418 624 l 621 970 l 814 970 l 534 522 l 726 522 l 726 380 l 505 380 l 505 304 l 726 304 l 726 162 l 505 162 l 505 0 l 325 0 l 325 162 l 109 162 l 109 304 l 325 304 l 325 380 l 109 380 l 109 522 l 296 522 l 34 970 z "},"µ":{"ha":838,"x_min":85,"x_max":753,"o":"m 753 712 l 753 0 l 612 0 l 591 91 q 391 0 488 0 q 264 41 296 0 l 264 -258 l 85 -258 l 85 712 l 264 712 l 264 304 q 395 145 264 145 q 573 235 503 145 l 573 712 l 753 712 z "},"ª":{"ha":435,"x_min":68,"x_max":368,"o":"m 68 725 q 212 834 68 834 q 298 827 266 834 l 298 861 q 209 906 298 906 q 96 888 155 906 l 96 954 q 209 970 155 970 q 368 856 368 970 l 368 614 l 330 614 l 304 639 q 202 614 264 614 q 68 725 68 614 m 298 764 q 212 770 268 770 q 137 726 137 770 q 202 678 137 678 q 298 707 267 678 l 298 764 z "},"º":{"ha":475,"x_min":68,"x_max":407,"o":"m 138 793 q 237 678 138 678 q 338 793 338 678 q 237 906 338 906 q 138 793 138 906 m 68 792 q 237 970 68 970 q 407 792 407 970 q 237 614 407 614 q 68 792 69 614 z "},"æ":{"ha":1183,"x_min":51,"x_max":1147,"o":"m 498 298 q 347 312 424 312 q 231 224 231 312 q 332 129 231 129 q 498 184 435 129 l 498 298 m 679 418 l 983 418 q 840 570 972 570 q 679 418 691 570 m 111 537 l 111 676 q 338 712 225 712 q 606 620 541 712 q 838 712 692 712 q 1147 395 1147 712 q 1139 293 1147 345 l 680 293 q 924 142 680 142 q 1118 162 1025 142 l 1118 20 q 886 0 1019 0 q 603 76 700 0 q 333 0 472 0 q 51 223 51 0 q 347 441 51 441 q 500 426 418 441 q 336 570 500 570 q 111 537 221 570 z "},"ø":{"ha":800,"x_min":41,"x_max":763,"o":"m 328 149 q 404 136 361 136 q 583 359 583 136 q 569 464 583 420 l 328 149 m 236 257 l 472 566 q 404 576 442 576 q 224 359 224 576 q 236 257 224 300 m 232 22 l 215 0 l 41 0 l 119 102 q 44 356 45 192 q 404 719 44 719 q 569 693 499 719 l 583 712 l 758 712 l 685 616 q 763 356 763 526 q 404 -6 763 -6 q 232 22 304 -6 z "},"¿":{"ha":756,"x_min":68,"x_max":688,"o":"m 407 546 l 407 712 l 587 712 l 587 546 l 407 546 m 688 -224 q 417 -258 546 -258 q 68 7 68 -258 q 407 305 68 305 l 407 461 l 587 461 l 587 163 l 407 163 q 234 7 234 163 q 417 -115 234 -115 q 688 -81 546 -115 l 688 -224 z "},"¡":{"ha":383,"x_min":102,"x_max":281,"o":"m 102 -258 l 102 461 l 281 461 l 281 -258 l 102 -258 m 102 546 l 102 712 l 281 712 l 281 546 l 102 546 z "},"¬":{"ha":736,"x_min":68,"x_max":668,"o":"m 68 712 l 668 712 l 668 441 l 526 441 l 526 570 l 68 570 l 68 712 z "},"ƒ":{"ha":710,"x_min":34,"x_max":730,"o":"m 730 827 q 682 832 704 832 q 546 726 574 832 l 530 665 l 679 665 l 652 522 l 509 522 l 398 -14 q 88 -260 349 -260 q 34 -258 62 -260 l 34 -115 q 83 -120 60 -120 q 218 -14 191 -120 l 330 522 l 201 522 l 228 665 l 350 665 l 366 726 q 676 972 416 972 q 730 970 702 972 l 730 827 z "},"«":{"ha":732,"x_min":34,"x_max":698,"o":"m 338 356 l 513 610 l 698 610 l 523 356 l 698 102 l 513 102 l 338 356 m 34 356 l 209 610 l 393 610 l 218 356 l 393 102 l 209 102 l 34 356 z "},"»":{"ha":732,"x_min":34,"x_max":698,"o":"m 218 102 l 34 102 l 209 356 l 34 610 l 218 610 l 393 356 l 218 102 m 523 102 l 338 102 l 513 356 l 338 610 l 523 610 l 698 356 l 523 102 z "},"…":{"ha":994,"x_min":68,"x_max":926,"o":"m 248 166 l 248 0 l 68 0 l 68 166 l 248 166 m 587 166 l 587 0 l 407 0 l 407 166 l 587 166 m 926 166 l 926 0 l 746 0 l 746 166 l 926 166 z "}," ":{"ha":338,"x_min":0,"x_max":0,"o":""},"À":{"ha":1059,"x_min":17,"x_max":1042,"o":"m 201 0 l 17 0 l 429 970 l 622 970 l 1042 0 l 849 0 l 739 264 l 416 264 l 478 420 l 673 420 l 521 785 l 201 0 m 634 1052 l 482 1052 l 320 1227 l 536 1227 l 634 1052 z "},"Ã":{"ha":1059,"x_min":17,"x_max":1042,"o":"m 201 0 l 17 0 l 429 970 l 622 970 l 1042 0 l 849 0 l 739 264 l 416 264 l 478 420 l 673 420 l 521 785 l 201 0 m 360 1196 q 448 1227 401 1227 q 523 1210 484 1227 q 600 1192 562 1192 q 699 1223 651 1192 l 699 1081 q 611 1050 659 1050 q 536 1067 576 1050 q 459 1085 497 1085 q 360 1054 408 1085 l 360 1196 z "},"Õ":{"ha":1102,"x_min":68,"x_max":1034,"o":"m 254 488 q 555 149 254 149 q 848 488 848 149 q 555 821 848 821 q 254 488 254 821 m 68 484 q 555 977 68 977 q 1034 484 1034 977 q 555 -7 1034 -7 q 68 484 90 -7 m 382 1196 q 470 1227 422 1227 q 545 1210 505 1227 q 622 1192 584 1192 q 721 1223 673 1192 l 721 1081 q 633 1050 680 1050 q 558 1067 597 1050 q 481 1085 519 1085 q 382 1054 430 1085 l 382 1196 z "},"Œ":{"ha":1502,"x_min":68,"x_max":1417,"o":"m 254 488 q 555 156 254 156 q 841 488 841 156 q 555 814 841 814 q 254 488 254 814 m 68 484 q 555 970 68 970 l 1407 970 l 1407 814 l 932 814 q 1027 570 1007 738 l 1383 570 l 1383 414 l 1027 414 q 939 156 1013 250 l 1417 156 l 1417 0 l 555 0 q 68 484 90 0 z "},"œ":{"ha":1261,"x_min":41,"x_max":1214,"o":"m 218 359 q 391 142 218 142 q 564 359 564 142 q 391 570 564 570 q 218 359 218 570 m 750 418 l 1040 418 q 898 571 1036 571 q 750 418 762 571 m 41 354 q 387 712 41 712 q 648 597 566 712 q 897 712 728 712 q 1214 377 1214 712 q 1208 286 1214 334 l 745 286 q 991 142 745 142 q 1180 161 1090 142 l 1180 22 q 954 0 1087 0 q 648 99 736 0 q 387 0 570 0 q 41 354 55 0 z "},"–":{"ha":814,"x_min":68,"x_max":746,"o":"m 746 427 l 746 285 l 68 285 l 68 427 l 746 427 z "},"—":{"ha":1153,"x_min":68,"x_max":1085,"o":"m 1085 427 l 1085 285 l 68 285 l 68 427 l 1085 427 z "},"“":{"ha":627,"x_min":34,"x_max":593,"o":"m 593 970 l 492 675 l 326 675 l 427 970 l 593 970 m 302 970 l 200 675 l 34 675 l 136 970 l 302 970 z "},"”":{"ha":627,"x_min":34,"x_max":593,"o":"m 593 970 l 492 675 l 326 675 l 427 970 l 593 970 m 302 970 l 200 675 l 34 675 l 136 970 l 302 970 z "},"‘":{"ha":336,"x_min":34,"x_max":302,"o":"m 302 970 l 200 675 l 34 675 l 136 970 l 302 970 z "},"’":{"ha":336,"x_min":34,"x_max":302,"o":"m 302 970 l 200 675 l 34 675 l 136 970 l 302 970 z "},"÷":{"ha":668,"x_min":68,"x_max":600,"o":"m 600 427 l 600 285 l 68 285 l 68 427 l 600 427 m 410 231 l 410 102 l 258 102 l 258 231 l 410 231 m 410 610 l 410 481 l 258 481 l 258 610 l 410 610 z "},"ÿ":{"ha":733,"x_min":0,"x_max":733,"o":"m 0 712 l 191 712 l 370 199 l 546 712 l 733 712 l 437 -21 q 186 -297 359 -215 l 99 -174 q 273 -4 218 -122 l 0 712 m 559 970 l 559 841 l 413 841 l 413 970 l 559 970 m 328 970 l 328 841 l 182 841 l 182 970 l 328 970 z "},"Ÿ":{"ha":882,"x_min":17,"x_max":926,"o":"m 17 970 l 210 970 l 483 503 l 739 970 l 926 970 l 569 339 l 569 0 l 389 0 l 389 339 l 17 970 m 660 1213 l 660 1084 l 513 1084 l 513 1213 l 660 1213 m 429 1213 l 429 1084 l 283 1084 l 283 1213 l 429 1213 z "},"¤":{"ha":772,"x_min":68,"x_max":705,"o":"m 146 513 l 68 594 l 142 670 l 227 588 q 391 634 300 634 q 543 588 475 634 l 630 670 l 705 594 l 625 513 q 664 356 664 456 q 618 199 664 262 l 705 117 l 630 41 l 543 125 q 385 84 470 84 q 220 125 301 84 l 142 41 l 68 117 l 146 199 q 108 356 108 269 q 146 513 108 449 m 218 359 q 385 192 218 192 q 551 359 551 192 q 385 524 551 524 q 218 359 218 524 z "},"‹":{"ha":427,"x_min":34,"x_max":393,"o":"m 34 356 l 209 610 l 393 610 l 218 356 l 393 102 l 209 102 l 34 356 z "},"›":{"ha":427,"x_min":34,"x_max":393,"o":"m 218 102 l 34 102 l 209 356 l 34 610 l 218 610 l 393 356 l 218 102 z "},"‡":{"ha":709,"x_min":34,"x_max":675,"o":"m 444 970 l 444 712 l 675 712 l 675 570 l 444 570 l 444 142 l 675 142 l 675 0 l 444 0 l 444 -258 l 264 -258 l 264 0 l 34 0 l 34 142 l 264 142 l 264 570 l 34 570 l 34 712 l 264 712 l 264 970 l 444 970 z "},"·":{"ha":305,"x_min":68,"x_max":237,"o":"m 68 356 q 153 441 68 441 q 237 356 237 441 q 153 271 237 271 q 68 356 68 271 z "},"‚":{"ha":295,"x_min":34,"x_max":261,"o":"m 261 125 l 159 -170 l 34 -170 l 136 125 l 261 125 z "},"„":{"ha":627,"x_min":34,"x_max":593,"o":"m 593 125 l 492 -170 l 326 -170 l 427 125 l 593 125 m 302 125 l 200 -170 l 34 -170 l 136 125 l 302 125 z "},"‰":{"ha":1513,"x_min":68,"x_max":1445,"o":"m 248 0 l 68 0 l 758 970 l 937 970 l 248 0 m 197 774 q 290 675 197 675 q 381 774 381 675 q 290 859 381 859 q 197 774 197 859 m 68 773 q 290 977 68 977 q 510 773 510 977 q 290 557 510 557 q 68 773 68 557 m 1132 204 q 1225 111 1132 111 q 1316 204 1316 111 q 1225 295 1316 295 q 1132 204 1132 295 m 1003 203 q 1225 413 1003 413 q 1445 203 1445 413 q 1225 -7 1445 -7 q 1003 203 1003 -7 m 637 204 q 731 111 637 111 q 822 204 822 111 q 731 295 822 295 q 637 204 637 295 m 509 203 q 731 413 509 413 q 951 203 951 413 q 731 -7 951 -7 q 509 203 509 -7 z "},"Â":{"ha":1059,"x_min":17,"x_max":1042,"o":"m 201 0 l 17 0 l 429 970 l 622 970 l 1042 0 l 849 0 l 739 264 l 416 264 l 478 420 l 673 420 l 521 785 l 201 0 m 479 1227 l 581 1227 l 699 1051 l 577 1051 l 530 1139 l 482 1051 l 360 1051 l 479 1227 z "},"Ê":{"ha":840,"x_min":102,"x_max":775,"o":"m 766 970 l 766 815 l 280 815 l 280 571 l 743 571 l 743 410 l 278 410 l 278 156 l 775 156 l 775 0 l 102 0 l 102 970 l 766 970 m 374 1227 l 476 1227 l 595 1051 l 473 1051 l 425 1139 l 378 1051 l 256 1051 l 374 1227 z "},"Á":{"ha":1059,"x_min":17,"x_max":1042,"o":"m 201 0 l 17 0 l 429 970 l 622 970 l 1042 0 l 849 0 l 739 264 l 416 264 l 478 420 l 673 420 l 521 785 l 201 0 m 523 1227 l 739 1227 l 577 1052 l 425 1052 l 523 1227 z "},"Ë":{"ha":840,"x_min":102,"x_max":775,"o":"m 766 970 l 766 815 l 280 815 l 280 571 l 743 571 l 743 410 l 278 410 l 278 156 l 775 156 l 775 0 l 102 0 l 102 970 l 766 970 m 613 1227 l 613 1099 l 467 1099 l 467 1227 l 613 1227 m 382 1227 l 382 1099 l 237 1099 l 237 1227 l 382 1227 z "},"È":{"ha":840,"x_min":102,"x_max":775,"o":"m 766 970 l 766 815 l 280 815 l 280 571 l 743 571 l 743 410 l 278 410 l 278 156 l 775 156 l 775 0 l 102 0 l 102 970 l 766 970 m 530 1052 l 378 1052 l 216 1227 l 432 1227 l 530 1052 z "},"Í":{"ha":383,"x_min":87,"x_max":401,"o":"m 281 970 l 281 0 l 102 0 l 102 970 l 281 970 m 184 1227 l 401 1227 l 239 1052 l 87 1052 l 184 1227 z "},"Î":{"ha":383,"x_min":22,"x_max":361,"o":"m 282 970 l 282 0 l 102 0 l 102 970 l 282 970 m 141 1227 l 243 1227 l 361 1051 l 239 1051 l 192 1139 l 144 1051 l 22 1051 l 141 1227 z "},"Ï":{"ha":383,"x_min":3,"x_max":380,"o":"m 281 970 l 281 0 l 102 0 l 102 970 l 281 970 m 380 1227 l 380 1099 l 234 1099 l 234 1227 l 380 1227 m 149 1227 l 149 1099 l 3 1099 l 3 1227 l 149 1227 z "},"Ì":{"ha":383,"x_min":-18,"x_max":296,"o":"m 281 970 l 281 0 l 102 0 l 102 970 l 281 970 m 296 1052 l 144 1052 l -18 1227 l 199 1227 l 296 1052 z "},"Ó":{"ha":1102,"x_min":68,"x_max":1034,"o":"m 254 488 q 555 149 254 149 q 848 488 848 149 q 555 821 848 821 q 254 488 254 821 m 68 484 q 555 977 68 977 q 1034 484 1034 977 q 555 -7 1034 -7 q 68 484 90 -7 m 544 1227 l 760 1227 l 598 1052 l 446 1052 l 544 1227 z "},"Ô":{"ha":1102,"x_min":68,"x_max":1034,"o":"m 254 488 q 555 149 254 149 q 848 488 848 149 q 555 821 848 821 q 254 488 254 821 m 68 484 q 555 977 68 977 q 1034 484 1034 977 q 555 -7 1034 -7 q 68 484 90 -7 m 500 1227 l 602 1227 l 721 1051 l 599 1051 l 551 1139 l 504 1051 l 382 1051 l 500 1227 z "},"Ò":{"ha":1102,"x_min":68,"x_max":1034,"o":"m 254 488 q 555 149 254 149 q 848 488 848 149 q 555 821 848 821 q 254 488 254 821 m 68 484 q 555 977 68 977 q 1034 484 1034 977 q 555 -7 1034 -7 q 68 484 90 -7 m 656 1052 l 504 1052 l 342 1227 l 558 1227 l 656 1052 z "},"Ú":{"ha":1038,"x_min":102,"x_max":936,"o":"m 102 381 l 102 970 l 281 970 l 281 381 q 519 149 281 149 q 756 381 756 149 l 756 970 l 936 970 l 936 381 q 519 -7 936 -7 q 102 381 102 -7 m 512 1227 l 728 1227 l 566 1052 l 414 1052 l 512 1227 z "},"Û":{"ha":1038,"x_min":102,"x_max":936,"o":"m 102 381 l 102 970 l 281 970 l 281 381 q 519 149 281 149 q 756 381 756 149 l 756 970 l 936 970 l 936 381 q 519 -7 936 -7 q 102 381 102 -7 m 468 1227 l 570 1227 l 688 1051 l 566 1051 l 519 1139 l 471 1051 l 349 1051 l 468 1227 z "},"Ù":{"ha":1038,"x_min":102,"x_max":936,"o":"m 102 381 l 102 970 l 281 970 l 281 381 q 519 149 281 149 q 756 381 756 149 l 756 970 l 936 970 l 936 381 q 519 -7 936 -7 q 102 381 102 -7 m 623 1052 l 471 1052 l 309 1227 l 526 1227 l 623 1052 z "},"ˆ":{"ha":475,"x_min":68,"x_max":407,"o":"m 186 970 l 288 970 l 407 793 l 285 793 l 237 882 l 190 793 l 68 793 l 186 970 z "},"˜":{"ha":475,"x_min":68,"x_max":407,"o":"m 68 939 q 156 970 109 970 q 231 952 191 970 q 308 935 270 935 q 407 966 359 935 l 407 823 q 319 792 366 792 q 244 810 283 792 q 167 827 205 827 q 68 796 116 827 l 68 939 z "},"¯":{"ha":475,"x_min":68,"x_max":407,"o":"m 407 970 l 407 827 l 68 827 l 68 970 l 407 970 z "},"¸":{"ha":466,"x_min":68,"x_max":398,"o":"m 68 -165 q 214 -199 141 -199 q 288 -162 288 -199 q 231 -132 288 -132 l 107 -132 l 196 51 l 308 51 l 253 -52 q 398 -162 398 -52 q 214 -286 398 -286 q 68 -252 141 -286 l 68 -165 z "},"̦":{"ha":315,"x_min":17,"x_max":298,"o":"m 298 -68 l 197 -258 l 17 -258 l 119 -68 l 298 -68 z "},"Š":{"ha":868,"x_min":51,"x_max":817,"o":"m 85 41 l 85 203 q 414 149 231 149 q 637 298 637 149 q 500 407 637 407 l 349 407 q 51 678 51 407 q 475 977 51 977 q 783 929 637 977 l 783 766 q 475 821 637 821 q 231 678 231 821 q 349 570 231 570 l 500 570 q 817 298 817 570 q 414 -7 817 -7 q 85 41 231 -7 m 264 1227 l 387 1227 l 434 1139 l 481 1227 l 604 1227 l 485 1051 l 383 1051 l 264 1227 z "},"š":{"ha":695,"x_min":51,"x_max":654,"o":"m 85 34 l 85 183 q 359 136 203 136 q 475 210 475 136 q 397 281 475 281 l 268 281 q 51 495 51 281 q 368 719 51 719 q 621 678 502 719 l 621 529 q 363 576 502 576 q 217 502 217 576 q 302 431 217 431 l 417 431 q 654 217 654 431 q 352 -7 654 -7 q 85 34 203 -7 m 183 970 l 305 970 l 353 882 l 400 970 l 522 970 l 404 793 l 302 793 l 183 970 z "},"¦":{"ha":383,"x_min":102,"x_max":281,"o":"m 281 237 l 281 -258 l 102 -258 l 102 237 l 281 237 m 281 970 l 281 475 l 102 475 l 102 970 l 281 970 z "},"Ð":{"ha":987,"x_min":-34,"x_max":936,"o":"m 102 570 l 102 970 l 454 970 q 936 511 936 970 q 454 0 936 0 l 102 0 l 102 414 l -34 414 l -34 570 l 102 570 m 281 570 l 475 570 l 475 414 l 281 414 l 281 156 l 454 156 q 756 511 756 156 q 454 814 756 814 l 281 814 l 281 570 z "},"ð":{"ha":800,"x_min":51,"x_max":749,"o":"m 570 438 q 557 543 570 503 q 399 576 496 576 q 228 366 228 576 q 399 136 228 136 q 570 438 570 136 m 600 860 q 749 441 749 729 q 399 -7 749 -7 q 51 366 51 -7 q 345 712 51 712 q 539 651 465 712 q 421 785 497 741 l 264 720 l 264 800 l 316 822 q 245 827 282 827 l 105 827 l 105 970 l 246 970 q 527 910 415 970 l 669 970 l 669 889 l 600 860 z "},"Ý":{"ha":882,"x_min":17,"x_max":926,"o":"m 17 970 l 210 970 l 483 503 l 739 970 l 926 970 l 569 339 l 569 0 l 389 0 l 389 339 l 17 970 m 465 1227 l 681 1227 l 519 1052 l 367 1052 l 465 1227 z "},"ý":{"ha":733,"x_min":0,"x_max":733,"o":"m 0 712 l 191 712 l 370 199 l 546 712 l 733 712 l 437 -21 q 186 -297 359 -215 l 99 -174 q 273 -4 218 -122 l 0 712 m 359 970 l 576 970 l 414 794 l 262 794 l 359 970 z "},"Þ":{"ha":867,"x_min":102,"x_max":833,"o":"m 102 0 l 102 970 l 288 970 l 288 761 l 556 761 q 833 515 833 761 q 433 163 833 225 l 408 323 q 645 509 645 367 q 545 603 645 603 l 281 603 l 281 0 l 102 0 z "},"þ":{"ha":798,"x_min":85,"x_max":747,"o":"m 264 694 q 398 712 323 712 q 747 367 747 712 q 410 0 747 0 q 264 34 338 0 l 264 -258 l 85 -258 l 85 970 l 264 970 l 264 694 m 264 557 l 264 186 q 409 149 332 149 q 570 368 570 149 q 392 567 570 567 q 264 557 315 567 z "},"­":{"ha":644,"x_min":68,"x_max":576,"o":"m 576 427 l 576 285 l 68 285 l 68 427 l 576 427 z "},"×":{"ha":596,"x_min":68,"x_max":528,"o":"m 197 356 l 68 486 l 168 586 l 298 456 l 427 586 l 528 486 l 398 356 l 528 227 l 427 126 l 298 256 l 168 126 l 68 227 l 197 356 z "},"¹":{"ha":222,"x_min":34,"x_max":216,"o":"m 85 481 l 85 828 l 34 828 l 34 892 l 216 967 l 216 481 l 85 481 z "},"²":{"ha":400,"x_min":34,"x_max":366,"o":"m 34 481 l 34 600 q 235 807 235 718 q 174 851 235 851 q 47 814 113 851 l 47 936 q 174 970 113 970 q 366 807 366 970 q 199 600 366 702 l 366 600 l 366 481 l 34 481 z "},"³":{"ha":392,"x_min":34,"x_max":358,"o":"m 34 949 q 170 970 102 970 q 358 825 358 970 q 294 728 358 758 q 358 631 358 699 q 170 479 358 479 q 34 499 102 479 l 34 621 q 170 597 102 597 q 228 631 228 597 q 197 675 228 675 l 85 675 l 85 780 l 195 780 q 228 825 228 780 q 170 852 228 852 q 34 827 102 852 l 34 949 z "},"½":{"ha":978,"x_min":68,"x_max":910,"o":"m 234 0 l 68 0 l 627 970 l 793 970 l 234 0 m 578 0 l 578 119 q 780 326 780 236 q 719 370 780 370 q 591 332 658 370 l 591 454 q 719 488 658 488 q 910 326 910 488 q 742 119 910 220 l 910 119 l 910 0 l 578 0 m 119 481 l 119 828 l 68 828 l 68 892 l 250 967 l 250 481 l 119 481 z "},"¼":{"ha":983,"x_min":68,"x_max":915,"o":"m 234 0 l 68 0 l 627 970 l 793 970 l 234 0 m 591 468 q 727 488 659 488 q 915 343 915 488 q 851 246 915 277 q 915 149 915 217 q 727 -3 915 -3 q 591 18 659 -3 l 591 140 q 727 115 659 115 q 784 149 784 115 q 753 194 784 194 l 642 194 l 642 298 l 752 298 q 784 343 784 298 q 727 370 784 370 q 591 346 659 370 l 591 468 m 119 481 l 119 828 l 68 828 l 68 892 l 250 967 l 250 481 l 119 481 z "},"¾":{"ha":1010,"x_min":68,"x_max":943,"o":"m 296 0 l 130 0 l 689 970 l 855 970 l 296 0 m 892 0 l 769 0 l 769 102 l 530 102 l 530 220 l 678 484 l 808 484 l 664 220 l 769 220 l 769 372 l 892 372 l 892 220 l 943 194 l 943 102 l 892 102 l 892 0 m 68 949 q 203 970 136 970 q 391 825 391 970 q 328 728 391 758 q 391 631 391 699 q 203 479 391 479 q 68 499 136 479 l 68 621 q 203 597 136 597 q 260 631 260 597 q 229 675 260 675 l 118 675 l 118 780 l 229 780 q 260 825 260 780 q 203 852 260 852 q 68 827 136 852 l 68 949 z "},"Ł":{"ha":836,"x_min":102,"x_max":768,"o":"m 203 347 l 102 273 l 102 429 l 203 503 l 203 970 l 383 970 l 383 635 l 548 757 l 548 601 l 383 479 l 383 156 l 768 156 l 768 0 l 203 0 l 203 347 z "},"ł":{"ha":383,"x_min":0,"x_max":383,"o":"m 102 349 l 0 273 l 0 429 l 102 505 l 102 970 l 281 970 l 281 637 l 383 713 l 383 557 l 281 481 l 281 0 l 102 0 l 102 349 z "},"Ž":{"ha":848,"x_min":85,"x_max":804,"o":"m 804 970 l 804 814 l 288 156 l 804 156 l 804 0 l 85 0 l 85 156 l 623 814 l 98 814 l 98 970 l 804 970 m 275 1227 l 397 1227 l 444 1139 l 492 1227 l 614 1227 l 495 1051 l 393 1051 l 275 1227 z "},"ž":{"ha":671,"x_min":68,"x_max":631,"o":"m 81 712 l 631 712 l 631 570 l 267 136 l 617 136 l 617 0 l 68 0 l 68 136 l 437 570 l 81 570 l 81 712 m 180 970 l 302 970 l 349 882 l 397 970 l 519 970 l 400 793 l 298 793 l 180 970 z "},"≠":{"ha":644,"x_min":68,"x_max":576,"o":"m 165 170 l 68 170 l 68 312 l 246 312 l 296 400 l 68 400 l 68 543 l 378 543 l 475 712 l 576 712 l 479 543 l 576 543 l 576 400 l 398 400 l 348 312 l 576 312 l 576 170 l 267 170 l 170 0 l 68 0 l 165 170 z "},"∞":{"ha":1126,"x_min":68,"x_max":1058,"o":"m 68 356 q 319 590 68 590 q 563 468 454 590 q 807 590 671 590 q 1058 356 1058 590 q 807 122 1058 122 q 563 244 671 122 q 319 122 454 122 q 68 356 68 122 m 899 356 q 807 441 899 441 q 644 356 732 441 q 807 271 732 271 q 899 356 899 271 m 227 356 q 319 271 227 271 q 468 356 393 271 q 319 441 393 441 q 227 356 227 441 z "},"≤":{"ha":644,"x_min":68,"x_max":576,"o":"m 576 142 l 576 0 l 68 0 l 68 142 l 576 142 m 68 407 l 68 509 l 576 726 l 576 576 l 253 460 l 576 339 l 576 190 l 68 407 z "},"≥":{"ha":644,"x_min":68,"x_max":576,"o":"m 576 142 l 576 0 l 68 0 l 68 142 l 576 142 m 68 190 l 68 339 l 391 460 l 68 576 l 68 726 l 576 509 l 576 407 l 68 190 z "},"∂":{"ha":877,"x_min":101,"x_max":876,"o":"m 538 834 q 243 739 364 834 l 243 895 q 553 977 387 977 q 876 654 876 977 q 856 475 876 574 q 366 -7 760 -7 q 101 204 101 -7 q 111 292 101 244 q 540 588 170 588 l 699 588 q 709 674 709 636 q 538 834 709 834 m 676 434 l 518 434 q 290 292 327 434 q 281 231 281 257 q 389 136 281 136 q 676 434 593 136 z "},"∑":{"ha":916,"x_min":68,"x_max":848,"o":"m 68 970 l 848 970 l 848 814 l 258 814 l 624 380 l 258 -102 l 848 -102 l 848 -258 l 68 -258 l 68 -102 l 431 380 l 68 814 l 68 970 z "},"∏":{"ha":1173,"x_min":102,"x_max":1072,"o":"m 1072 970 l 1072 -258 l 899 -258 l 899 814 l 281 814 l 281 -258 l 102 -258 l 102 970 l 1072 970 z "},"π":{"ha":977,"x_min":0,"x_max":936,"o":"m 0 671 q 197 712 95 712 l 936 712 l 936 570 l 770 570 l 770 217 q 881 141 770 141 q 909 142 894 141 l 909 0 q 845 -3 875 -3 q 590 217 590 -3 l 590 570 l 349 570 l 349 -1 l 170 -1 l 170 570 q 0 529 95 570 l 0 671 z "},"∫":{"ha":399,"x_min":0,"x_max":399,"o":"m 399 983 q 275 802 275 983 q 277 766 275 785 l 302 217 q 303 180 303 198 q 0 -142 303 -142 l 0 0 q 124 181 124 0 q 123 217 124 198 l 97 766 q 96 803 96 785 q 399 1126 96 1126 l 399 983 z "},"Ω":{"ha":1092,"x_min":81,"x_max":1010,"o":"m 92 0 l 92 156 l 271 156 q 81 543 81 285 q 546 983 81 983 q 1010 543 1010 983 q 821 156 1010 285 l 1000 156 l 1000 0 l 627 0 l 627 156 q 831 543 831 285 q 546 827 831 827 q 261 543 261 827 q 465 156 261 285 l 465 0 l 92 0 z "},"√":{"ha":929,"x_min":51,"x_max":929,"o":"m 51 712 l 312 712 l 460 234 l 760 1257 l 929 1257 l 536 -5 l 383 -5 l 200 570 l 51 570 l 51 712 z "},"≈":{"ha":712,"x_min":68,"x_max":644,"o":"m 644 312 l 644 170 q 495 136 569 136 q 349 170 421 136 q 207 203 277 203 q 68 170 137 203 l 68 312 q 217 346 144 346 q 363 312 291 346 q 505 278 435 278 q 644 312 576 278 m 644 543 l 644 400 q 495 366 569 366 q 349 400 421 366 q 207 434 277 434 q 68 400 137 434 l 68 543 q 217 576 144 576 q 363 543 291 576 q 505 509 435 509 q 644 543 576 509 z "},"Δ":{"ha":1059,"x_min":17,"x_max":1042,"o":"m 265 156 l 784 156 l 521 785 l 265 156 m 17 0 l 429 970 l 622 970 l 1042 0 l 17 0 z "},"◊":{"ha":736,"x_min":34,"x_max":702,"o":"m 285 970 l 451 970 l 702 485 l 451 0 l 285 0 l 34 485 l 285 970 m 214 485 l 368 156 l 522 485 l 368 814 l 214 485 z "},"⁄":{"ha":861,"x_min":68,"x_max":793,"o":"m 234 0 l 68 0 l 627 970 l 793 970 l 234 0 z "},"ﬁ":{"ha":787,"x_min":85,"x_max":703,"o":"m 703 712 l 703 0 l 523 0 l 523 570 l 264 570 l 264 0 l 85 0 l 85 747 q 405 1019 85 1019 q 635 971 519 1019 l 635 829 q 418 876 530 876 q 264 752 264 876 l 264 712 l 703 712 z "},"ﬂ":{"ha":808,"x_min":85,"x_max":723,"o":"m 543 864 q 431 876 489 876 q 264 752 264 876 l 264 712 l 424 712 l 424 570 l 264 570 l 264 0 l 85 0 l 85 747 q 439 1019 85 1019 q 723 971 574 1019 l 723 0 l 543 0 l 543 864 z "},"":{"ha":1169,"x_min":68,"x_max":1101,"o":"m 801 225 l 801 294 l 628 303 l 628 669 l 714 669 l 749 398 l 827 398 l 801 745 l 639 745 l 585 719 l 531 745 l 368 745 l 342 398 l 420 398 l 454 669 l 541 669 l 541 303 l 368 294 l 368 225 l 801 225 m 362 902 l 387 962 l 448 937 l 484 991 l 538 956 l 585 1001 l 631 956 l 686 991 l 722 937 l 782 962 l 807 902 l 871 915 l 884 850 l 950 850 l 950 785 l 1014 772 l 1001 708 l 1061 683 l 1037 622 l 1092 587 l 1055 531 l 1101 486 l 1055 439 l 1092 383 l 1036 348 l 1061 287 l 1001 262 l 1014 198 l 950 185 l 950 120 l 884 120 l 871 55 l 807 68 l 782 7 l 722 33 l 686 -22 l 631 14 l 585 -31 l 538 14 l 484 -22 l 448 33 l 387 7 l 362 68 l 298 55 l 285 120 l 219 120 l 219 185 l 155 198 l 168 262 l 106 288 l 132 348 l 77 384 l 115 439 l 68 486 l 115 531 l 77 587 l 133 623 l 108 683 l 168 708 l 155 772 l 219 785 l 219 850 l 285 850 l 298 915 l 362 902 m 585 913 q 281 788 407 913 q 156 486 156 663 q 281 182 156 307 q 585 56 407 56 q 888 182 762 56 q 1013 486 1013 307 q 888 788 1013 663 q 585 913 762 913 m 585 877 q 861 762 747 877 q 976 486 976 647 q 861 208 976 323 q 585 93 747 93 q 308 208 422 93 q 193 486 193 323 q 308 762 193 647 q 585 877 422 877 z "},"ı":{"ha":349,"x_min":85,"x_max":264,"o":"m 264 712 l 264 0 l 85 0 l 85 712 l 264 712 z "},"˘":{"ha":536,"x_min":68,"x_max":468,"o":"m 68 970 l 186 970 q 268 875 186 875 q 349 970 349 875 l 468 970 q 268 773 468 773 q 68 970 68 773 z "},"˙":{"ha":295,"x_min":68,"x_max":227,"o":"m 227 970 l 227 821 l 68 821 l 68 970 l 227 970 z "},"˚":{"ha":442,"x_min":68,"x_max":374,"o":"m 129 924 q 222 831 129 831 q 313 924 313 831 q 222 1015 313 1015 q 129 924 129 1015 m 68 923 q 222 1065 68 1065 q 374 923 374 1065 q 222 781 374 781 q 68 923 68 781 z "},"˝":{"ha":725,"x_min":68,"x_max":657,"o":"m 165 970 l 382 970 l 220 794 l 68 794 l 165 970 m 441 970 l 657 970 l 495 794 l 343 794 l 441 970 z "},"˛":{"ha":425,"x_min":68,"x_max":357,"o":"m 357 0 q 195 -134 195 -65 q 253 -180 195 -180 q 346 -167 311 -180 l 346 -275 q 245 -289 304 -289 q 68 -151 68 -289 q 163 0 68 -62 l 357 0 z "},"ˇ":{"ha":475,"x_min":68,"x_max":407,"o":"m 68 970 l 190 970 l 237 882 l 285 970 l 407 970 l 288 793 l 186 793 l 68 970 z "},"€":{"ha":939,"x_min":68,"x_max":848,"o":"m 848 34 q 576 -7 722 -7 q 68 498 68 -7 q 576 977 68 977 q 848 936 722 977 l 848 773 q 590 821 722 821 q 261 666 307 821 l 718 666 l 718 524 l 248 524 l 248 476 l 718 476 l 718 334 l 261 334 q 590 149 300 149 q 848 197 722 149 l 848 34 z "},"Ż":{"ha":848,"x_min":85,"x_max":804,"o":"m 804 970 l 804 814 l 288 156 l 804 156 l 804 0 l 85 0 l 85 156 l 623 814 l 98 814 l 98 970 l 804 970 m 524 1227 l 524 1078 l 365 1078 l 365 1227 l 524 1227 z "},"ż":{"ha":671,"x_min":68,"x_max":631,"o":"m 81 712 l 631 712 l 631 570 l 267 136 l 617 136 l 617 0 l 68 0 l 68 136 l 437 570 l 81 570 l 81 712 m 429 970 l 429 821 l 270 821 l 270 970 l 429 970 z "},"Ź":{"ha":848,"x_min":85,"x_max":804,"o":"m 804 970 l 804 814 l 288 156 l 804 156 l 804 0 l 85 0 l 85 156 l 623 814 l 98 814 l 98 970 l 804 970 m 437 1227 l 654 1227 l 492 1052 l 340 1052 l 437 1227 z "},"ź":{"ha":671,"x_min":68,"x_max":631,"o":"m 81 712 l 631 712 l 631 570 l 267 136 l 617 136 l 617 0 l 68 0 l 68 136 l 437 570 l 81 570 l 81 712 m 342 970 l 559 970 l 397 794 l 245 794 l 342 970 z "},"Ą":{"ha":1059,"x_min":17,"x_max":1042,"o":"m 201 0 l 17 0 l 429 970 l 622 970 l 1042 0 q 881 -134 881 -65 q 939 -180 881 -180 q 1031 -167 996 -180 l 1031 -275 q 930 -289 990 -289 q 753 -151 753 -289 q 849 0 753 -62 l 739 264 l 416 264 l 478 420 l 673 420 l 521 785 l 201 0 z "},"ą":{"ha":770,"x_min":51,"x_max":685,"o":"m 360 312 q 231 224 231 312 q 339 129 231 129 q 505 184 429 129 l 505 298 q 360 312 437 312 m 505 0 l 505 64 q 312 0 424 0 q 51 222 51 0 q 360 434 51 434 q 505 420 433 434 l 505 474 q 368 570 505 570 q 109 536 251 570 l 109 678 q 368 712 251 712 q 685 477 685 712 l 685 0 q 524 -134 524 -65 q 581 -180 524 -180 q 674 -167 639 -180 l 674 -275 q 573 -289 633 -289 q 396 -151 396 -289 q 505 0 396 -62 z "},"Ć":{"ha":943,"x_min":68,"x_max":875,"o":"m 875 41 q 590 -7 749 -7 q 68 498 68 -7 q 590 977 68 977 q 875 929 749 977 l 875 766 q 604 821 749 821 q 254 498 254 821 q 604 149 254 149 q 875 203 749 149 l 875 41 m 465 1227 l 681 1227 l 519 1052 l 367 1052 l 465 1227 z "},"ć":{"ha":665,"x_min":41,"x_max":604,"o":"m 604 20 q 420 0 515 0 q 41 370 41 0 q 420 712 41 712 q 604 692 515 712 l 604 549 q 434 570 515 570 q 220 370 220 570 q 434 142 220 142 q 604 163 515 142 l 604 20 m 329 970 l 545 970 l 383 794 l 231 794 l 329 970 z "},"Ń":{"ha":1068,"x_min":102,"x_max":966,"o":"m 102 0 l 102 970 l 281 970 l 793 263 l 793 970 l 966 970 l 966 0 l 787 0 l 275 722 l 275 0 l 102 0 m 527 1227 l 743 1227 l 581 1052 l 429 1052 l 527 1227 z "},"ń":{"ha":817,"x_min":85,"x_max":732,"o":"m 85 0 l 85 712 l 224 712 l 246 608 q 479 712 349 712 q 732 449 732 712 l 732 0 l 553 0 l 553 449 q 435 567 553 567 q 264 497 348 567 l 264 0 l 85 0 m 415 970 l 631 970 l 469 794 l 317 794 l 415 970 z "},"Ś":{"ha":868,"x_min":51,"x_max":817,"o":"m 85 41 l 85 203 q 414 149 231 149 q 637 298 637 149 q 500 407 637 407 l 349 407 q 51 678 51 407 q 475 977 51 977 q 783 929 637 977 l 783 766 q 475 821 637 821 q 231 678 231 821 q 349 570 231 570 l 500 570 q 817 298 817 570 q 414 -7 817 -7 q 85 41 231 -7 m 427 1227 l 644 1227 l 481 1052 l 330 1052 l 427 1227 z "},"ś":{"ha":695,"x_min":51,"x_max":654,"o":"m 85 34 l 85 183 q 359 136 203 136 q 475 210 475 136 q 397 281 475 281 l 268 281 q 51 495 51 281 q 368 719 51 719 q 621 678 502 719 l 621 529 q 363 576 502 576 q 217 502 217 576 q 302 431 217 431 l 417 431 q 654 217 654 431 q 352 -7 654 -7 q 85 34 203 -7 m 346 970 l 562 970 l 400 794 l 248 794 l 346 970 z "},"Ę":{"ha":840,"x_min":102,"x_max":775,"o":"m 582 0 l 102 0 l 102 970 l 766 970 l 766 815 l 280 815 l 280 571 l 743 571 l 743 410 l 278 410 l 278 156 l 775 156 l 775 0 q 614 -134 614 -65 q 671 -180 614 -180 q 764 -167 729 -180 l 764 -275 q 663 -289 723 -289 q 486 -151 486 -289 q 582 0 486 -62 z "},"ę":{"ha":760,"x_min":51,"x_max":709,"o":"m 231 418 l 534 418 l 534 423 q 385 571 534 571 q 231 418 243 571 m 496 1 q 438 0 469 0 q 51 364 51 0 q 385 712 51 712 q 709 381 709 712 q 703 293 709 337 l 231 293 q 452 142 231 142 q 667 163 559 142 l 667 20 q 506 -134 506 -65 q 564 -180 506 -180 q 656 -167 621 -180 l 656 -275 q 555 -289 615 -289 q 378 -151 378 -289 q 488 0 378 -62 l 496 1 z "},"Č":{"ha":943,"x_min":68,"x_max":875,"o":"m 875 41 q 590 -7 749 -7 q 68 498 68 -7 q 590 977 68 977 q 875 929 749 977 l 875 766 q 604 821 749 821 q 254 498 254 821 q 604 149 254 149 q 875 203 749 149 l 875 41 m 375 1227 l 497 1227 l 545 1139 l 592 1227 l 714 1227 l 595 1051 l 494 1051 l 375 1227 z "},"č":{"ha":644,"x_min":47,"x_max":610,"o":"m 610 20 q 427 0 522 0 q 47 370 47 0 q 427 712 47 712 q 610 692 522 712 l 610 549 q 441 570 522 570 q 227 370 227 570 q 441 142 227 142 q 610 163 522 142 l 610 20 m 207 970 l 329 970 l 376 882 l 424 970 l 546 970 l 427 793 l 326 793 l 207 970 z "},"Ď":{"ha":1014,"x_min":102,"x_max":963,"o":"m 481 156 q 783 511 783 156 q 481 814 783 814 l 281 814 l 281 156 l 481 156 m 102 0 l 102 970 l 481 970 q 963 511 963 970 q 481 0 963 0 l 102 0 m 363 1227 l 485 1227 l 532 1139 l 580 1227 l 702 1227 l 583 1051 l 481 1051 l 363 1227 z "},"ď":{"ha":800,"x_min":51,"x_max":1051,"o":"m 1051 970 l 949 675 l 783 675 l 885 970 l 1051 970 m 536 526 q 396 563 480 563 q 229 375 229 563 q 403 152 229 152 q 536 172 473 152 l 536 526 m 715 43 q 396 0 552 0 q 51 370 51 0 q 389 712 51 712 q 536 678 460 712 l 536 970 l 715 970 l 715 43 z "},"Ě":{"ha":840,"x_min":102,"x_max":775,"o":"m 766 970 l 766 815 l 280 815 l 280 571 l 743 571 l 743 410 l 278 410 l 278 156 l 775 156 l 775 0 l 102 0 l 102 970 l 766 970 m 256 1227 l 378 1227 l 425 1139 l 473 1227 l 595 1227 l 476 1051 l 374 1051 l 256 1227 z "},"ě":{"ha":760,"x_min":51,"x_max":709,"o":"m 385 712 q 709 381 709 712 q 703 293 709 337 l 231 293 q 452 142 231 142 q 667 163 559 142 l 667 20 q 438 0 573 0 q 51 364 51 0 q 385 712 51 712 m 231 418 l 534 418 l 534 423 q 385 571 534 571 q 231 418 243 571 m 217 970 l 339 970 l 387 882 l 434 970 l 556 970 l 437 793 l 336 793 l 217 970 z "},"Ň":{"ha":1068,"x_min":102,"x_max":966,"o":"m 102 0 l 102 970 l 281 970 l 793 263 l 793 970 l 966 970 l 966 0 l 787 0 l 275 722 l 275 0 l 102 0 m 365 1227 l 487 1227 l 534 1139 l 582 1227 l 704 1227 l 585 1051 l 484 1051 l 365 1227 z "},"ň":{"ha":838,"x_min":85,"x_max":732,"o":"m 85 0 l 85 712 l 224 712 l 246 608 q 479 712 349 712 q 732 449 732 712 l 732 0 l 553 0 l 553 449 q 435 567 553 567 q 264 497 348 567 l 264 0 l 85 0 m 250 970 l 372 970 l 419 882 l 467 970 l 589 970 l 470 793 l 368 793 l 250 970 z "},"Ř":{"ha":932,"x_min":102,"x_max":916,"o":"m 102 1 l 102 970 l 543 970 q 840 710 840 970 q 608 419 840 534 l 916 0 l 689 0 l 394 422 l 394 505 q 652 705 652 549 q 531 812 652 812 l 285 812 l 285 1 l 102 1 m 258 1227 l 380 1227 l 427 1139 l 475 1227 l 597 1227 l 478 1051 l 376 1051 l 258 1227 z "},"ř":{"ha":461,"x_min":85,"x_max":444,"o":"m 85 0 l 85 712 l 224 712 l 246 621 q 444 712 340 712 l 444 567 q 264 484 344 567 l 264 0 l 85 0 m 95 970 l 217 970 l 264 882 l 312 970 l 434 970 l 315 793 l 214 793 l 95 970 z "},"Ť":{"ha":736,"x_min":0,"x_max":736,"o":"m 736 970 l 736 814 l 458 814 l 458 0 l 278 0 l 278 814 l 0 814 l 0 970 l 736 970 m 199 1227 l 321 1227 l 368 1139 l 416 1227 l 538 1227 l 419 1051 l 317 1051 l 199 1227 z "},"ť":{"ha":451,"x_min":75,"x_max":702,"o":"m 75 827 l 208 827 l 235 712 l 414 712 l 414 570 l 254 570 l 254 242 q 340 142 254 142 l 414 142 l 414 0 l 254 0 q 75 192 75 0 l 75 827 m 702 970 l 600 675 l 434 675 l 536 970 l 702 970 z "},"Ů":{"ha":1038,"x_min":102,"x_max":936,"o":"m 102 381 l 102 970 l 281 970 l 281 381 q 519 149 281 149 q 756 381 756 149 l 756 970 l 936 970 l 936 381 q 519 -7 936 -7 q 102 381 102 -7 m 420 1112 q 514 1019 420 1019 q 605 1112 605 1019 q 514 1202 605 1202 q 420 1112 420 1202 m 359 1110 q 514 1253 359 1253 q 666 1110 666 1253 q 514 968 666 968 q 359 1110 359 968 z "},"ů":{"ha":838,"x_min":85,"x_max":726,"o":"m 726 712 l 726 0 l 585 0 l 564 91 q 303 0 441 0 q 85 258 85 0 l 85 712 l 264 712 l 264 263 q 368 145 264 145 q 546 215 455 145 l 546 712 l 726 712 m 303 924 q 397 831 303 831 q 488 924 488 831 q 397 1015 488 1015 q 303 924 303 1015 m 242 923 q 397 1065 242 1065 q 549 923 549 1065 q 397 781 549 781 q 242 923 242 781 z "},"Ā":{"ha":1059,"x_min":17,"x_max":1042,"o":"m 201 0 l 17 0 l 429 970 l 622 970 l 1042 0 l 849 0 l 739 264 l 416 264 l 478 420 l 673 420 l 521 785 l 201 0 m 699 1227 l 699 1085 l 360 1085 l 360 1227 l 699 1227 z "},"ā":{"ha":770,"x_min":51,"x_max":685,"o":"m 51 222 q 360 434 51 434 q 505 420 433 434 l 505 474 q 368 570 505 570 q 109 536 251 570 l 109 678 q 368 712 251 712 q 685 477 685 712 l 685 0 l 581 0 l 517 64 q 312 0 424 0 q 51 222 51 0 m 505 298 q 360 312 437 312 q 231 224 231 312 q 339 129 231 129 q 505 184 429 129 l 505 298 m 565 970 l 565 827 l 226 827 l 226 970 l 565 970 z "},"Ă":{"ha":1059,"x_min":17,"x_max":1042,"o":"m 201 0 l 17 0 l 429 970 l 622 970 l 1042 0 l 849 0 l 739 264 l 416 264 l 478 420 l 673 420 l 521 785 l 201 0 m 330 1227 l 448 1227 q 530 1133 448 1133 q 611 1227 611 1133 l 730 1227 q 530 1031 730 1031 q 330 1227 330 1031 z "},"ă":{"ha":770,"x_min":51,"x_max":685,"o":"m 51 222 q 360 434 51 434 q 505 420 433 434 l 505 474 q 368 570 505 570 q 109 536 251 570 l 109 678 q 368 712 251 712 q 685 477 685 712 l 685 0 l 581 0 l 517 64 q 312 0 424 0 q 51 222 51 0 m 505 298 q 360 312 437 312 q 231 224 231 312 q 339 129 231 129 q 505 184 429 129 l 505 298 m 195 970 l 314 970 q 395 875 314 875 q 477 970 477 875 l 595 970 q 395 773 595 773 q 195 970 195 773 z "},"Ĉ":{"ha":943,"x_min":68,"x_max":875,"o":"m 875 41 q 590 -7 749 -7 q 68 498 68 -7 q 590 977 68 977 q 875 929 749 977 l 875 766 q 604 821 749 821 q 254 498 254 821 q 604 149 254 149 q 875 203 749 149 l 875 41 m 515 1227 l 617 1227 l 736 1051 l 614 1051 l 566 1139 l 519 1051 l 397 1051 l 515 1227 z "},"ĉ":{"ha":644,"x_min":47,"x_max":610,"o":"m 610 20 q 427 0 522 0 q 47 370 47 0 q 427 712 47 712 q 610 692 522 712 l 610 549 q 441 570 522 570 q 227 370 227 570 q 441 142 227 142 q 610 163 522 142 l 610 20 m 326 970 l 427 970 l 546 793 l 424 793 l 376 882 l 329 793 l 207 793 l 326 970 z "},"Ċ":{"ha":943,"x_min":68,"x_max":875,"o":"m 875 41 q 590 -7 749 -7 q 68 498 68 -7 q 590 977 68 977 q 875 929 749 977 l 875 766 q 604 821 749 821 q 254 498 254 821 q 604 149 254 149 q 875 203 749 149 l 875 41 m 660 1227 l 660 1078 l 500 1078 l 500 1227 l 660 1227 z "},"ċ":{"ha":644,"x_min":47,"x_max":610,"o":"m 610 20 q 427 0 522 0 q 47 370 47 0 q 427 712 47 712 q 610 692 522 712 l 610 549 q 441 570 522 570 q 227 370 227 570 q 441 142 227 142 q 610 163 522 142 l 610 20 m 456 970 l 456 821 l 297 821 l 297 970 l 456 970 z "},"Đ":{"ha":987,"x_min":-34,"x_max":936,"o":"m 102 570 l 102 970 l 454 970 q 936 511 936 970 q 454 0 936 0 l 102 0 l 102 414 l -34 414 l -34 570 l 102 570 m 281 570 l 475 570 l 475 414 l 281 414 l 281 156 l 454 156 q 756 511 756 156 q 454 814 756 814 l 281 814 l 281 570 z "},"đ":{"ha":800,"x_min":51,"x_max":715,"o":"m 536 526 q 396 563 480 563 q 229 375 229 563 q 403 152 229 152 q 536 172 473 152 l 536 526 m 536 760 l 78 760 l 78 902 l 536 902 l 536 970 l 715 970 l 715 43 q 396 0 552 0 q 51 370 51 0 q 389 712 51 712 q 536 678 460 712 l 536 760 z "},"Ē":{"ha":840,"x_min":102,"x_max":775,"o":"m 766 970 l 766 815 l 280 815 l 280 571 l 743 571 l 743 410 l 278 410 l 278 156 l 775 156 l 775 0 l 102 0 l 102 970 l 766 970 m 595 1227 l 595 1085 l 256 1085 l 256 1227 l 595 1227 z "},"ē":{"ha":760,"x_min":51,"x_max":709,"o":"m 385 712 q 709 381 709 712 q 703 293 709 337 l 231 293 q 452 142 231 142 q 667 163 559 142 l 667 20 q 438 0 573 0 q 51 364 51 0 q 385 712 51 712 m 231 418 l 534 418 l 534 423 q 385 571 534 571 q 231 418 243 571 m 556 970 l 556 827 l 217 827 l 217 970 l 556 970 z "},"Ĕ":{"ha":840,"x_min":102,"x_max":775,"o":"m 766 970 l 766 815 l 280 815 l 280 571 l 743 571 l 743 410 l 278 410 l 278 156 l 775 156 l 775 0 l 102 0 l 102 970 l 766 970 m 225 1227 l 344 1227 q 425 1133 344 1133 q 507 1227 507 1133 l 625 1227 q 425 1031 625 1031 q 225 1227 225 1031 z "},"ĕ":{"ha":760,"x_min":51,"x_max":709,"o":"m 385 712 q 709 381 709 712 q 703 293 709 337 l 231 293 q 452 142 231 142 q 667 163 559 142 l 667 20 q 438 0 573 0 q 51 364 51 0 q 385 712 51 712 m 231 418 l 534 418 l 534 423 q 385 571 534 571 q 231 418 243 571 m 186 970 l 305 970 q 387 875 305 875 q 468 970 468 875 l 587 970 q 387 773 587 773 q 186 970 186 773 z "},"Ė":{"ha":840,"x_min":102,"x_max":775,"o":"m 766 970 l 766 815 l 280 815 l 280 571 l 743 571 l 743 410 l 278 410 l 278 156 l 775 156 l 775 0 l 102 0 l 102 970 l 766 970 m 505 1227 l 505 1078 l 345 1078 l 345 1227 l 505 1227 z "},"ė":{"ha":760,"x_min":51,"x_max":709,"o":"m 385 712 q 709 381 709 712 q 703 293 709 337 l 231 293 q 452 142 231 142 q 667 163 559 142 l 667 20 q 438 0 573 0 q 51 364 51 0 q 385 712 51 712 m 231 418 l 534 418 l 534 423 q 385 571 534 571 q 231 418 243 571 m 467 970 l 467 821 l 307 821 l 307 970 l 467 970 z "},"Ĝ":{"ha":943,"x_min":68,"x_max":875,"o":"m 875 45 q 581 -7 758 -7 q 68 498 68 -7 q 590 977 68 977 q 875 929 749 977 l 875 766 q 604 821 749 821 q 254 498 254 821 q 584 149 254 149 q 695 165 633 149 l 695 448 l 875 448 l 875 45 m 522 1227 l 624 1227 l 743 1051 l 621 1051 l 573 1139 l 526 1051 l 404 1051 l 522 1227 z "},"ĝ":{"ha":805,"x_min":51,"x_max":720,"o":"m 541 551 q 415 567 496 567 q 229 361 229 567 q 389 163 229 163 q 541 199 467 163 l 541 551 m 720 54 q 345 -258 720 -258 q 112 -224 214 -258 l 112 -81 q 347 -115 216 -115 q 541 47 541 -115 q 368 14 460 14 q 51 360 51 14 q 420 712 51 712 q 720 683 545 712 l 720 54 m 355 970 l 457 970 l 576 793 l 454 793 l 406 882 l 359 793 l 237 793 l 355 970 z "},"Ğ":{"ha":943,"x_min":68,"x_max":875,"o":"m 875 45 q 581 -7 758 -7 q 68 498 68 -7 q 590 977 68 977 q 875 929 749 977 l 875 766 q 604 821 749 821 q 254 498 254 821 q 584 149 254 149 q 695 165 633 149 l 695 448 l 875 448 l 875 45 m 346 1227 l 465 1227 q 546 1133 465 1133 q 627 1227 627 1133 l 746 1227 q 546 1031 746 1031 q 346 1227 346 1031 z "},"ğ":{"ha":805,"x_min":51,"x_max":720,"o":"m 541 551 q 415 567 496 567 q 229 361 229 567 q 389 163 229 163 q 541 199 467 163 l 541 551 m 720 54 q 345 -258 720 -258 q 112 -224 214 -258 l 112 -81 q 347 -115 216 -115 q 541 47 541 -115 q 368 14 460 14 q 51 360 51 14 q 420 712 51 712 q 720 683 545 712 l 720 54 m 206 970 l 325 970 q 406 875 325 875 q 488 970 488 875 l 606 970 q 406 773 606 773 q 206 970 206 773 z "},"Ġ":{"ha":943,"x_min":68,"x_max":875,"o":"m 875 45 q 581 -7 758 -7 q 68 498 68 -7 q 590 977 68 977 q 875 929 749 977 l 875 766 q 604 821 749 821 q 254 498 254 821 q 584 149 254 149 q 695 165 633 149 l 695 448 l 875 448 l 875 45 m 653 1227 l 653 1078 l 494 1078 l 494 1227 l 653 1227 z "},"ġ":{"ha":805,"x_min":51,"x_max":720,"o":"m 541 551 q 415 567 496 567 q 229 361 229 567 q 389 163 229 163 q 541 199 467 163 l 541 551 m 720 54 q 345 -258 720 -258 q 112 -224 214 -258 l 112 -81 q 347 -115 216 -115 q 541 47 541 -115 q 368 14 460 14 q 51 360 51 14 q 420 712 51 712 q 720 683 545 712 l 720 54 m 492 970 l 492 821 l 333 821 l 333 970 l 492 970 z "},"Ģ":{"ha":943,"x_min":68,"x_max":875,"o":"m 875 45 q 581 -7 758 -7 q 68 498 68 -7 q 590 977 68 977 q 875 929 749 977 l 875 766 q 604 821 749 821 q 254 498 254 821 q 584 149 254 149 q 695 165 633 149 l 695 448 l 875 448 l 875 45 m 612 -68 l 511 -258 l 331 -258 l 433 -68 l 612 -68 z "},"ģ":{"ha":805,"x_min":51,"x_max":720,"o":"m 541 551 q 401 567 496 567 q 229 361 229 567 q 369 163 229 163 q 541 199 467 163 l 541 551 m 720 0 q 338 -258 720 -258 q 105 -224 207 -258 l 105 -81 q 340 -115 209 -115 q 541 47 541 -115 q 368 14 460 14 q 51 360 51 14 q 420 712 51 712 q 720 683 545 712 l 720 0 m 581 970 l 479 780 l 299 780 l 401 970 l 581 970 z "},"Ĥ":{"ha":1041,"x_min":102,"x_max":939,"o":"m 102 0 l 102 970 l 281 970 l 281 570 l 760 570 l 760 970 l 939 970 l 939 0 l 760 0 l 760 414 l 281 414 l 281 0 l 102 0 m 470 1227 l 572 1227 l 690 1051 l 568 1051 l 521 1139 l 473 1051 l 351 1051 l 470 1227 z "},"ĥ":{"ha":817,"x_min":9,"x_max":733,"o":"m 85 0 l 85 970 l 265 970 l 265 621 q 480 712 349 712 q 733 449 733 712 l 733 0 l 553 0 l 553 449 q 436 567 553 567 q 265 497 349 567 l 265 0 l 85 0 m 127 1244 l 229 1244 l 348 1068 l 226 1068 l 178 1156 l 131 1068 l 9 1068 l 127 1244 z "},"Ħ":{"ha":1041,"x_min":102,"x_max":939,"o":"m 760 854 l 760 970 l 939 970 l 939 0 l 760 0 l 760 414 l 281 414 l 281 0 l 102 0 l 102 970 l 281 970 l 281 854 l 760 854 m 281 712 l 281 570 l 760 570 l 760 712 l 281 712 z "},"ħ":{"ha":817,"x_min":85,"x_max":732,"o":"m 264 760 l 264 621 q 479 712 349 712 q 732 449 732 712 l 732 0 l 553 0 l 553 449 q 435 567 553 567 q 264 497 348 567 l 264 0 l 85 0 l 85 970 l 264 970 l 264 902 l 732 902 l 732 760 l 264 760 z "},"Ĩ":{"ha":383,"x_min":22,"x_max":361,"o":"m 282 970 l 282 0 l 102 0 l 102 970 l 282 970 m 22 1196 q 111 1227 63 1227 q 185 1210 146 1227 q 262 1192 224 1192 q 361 1223 313 1192 l 361 1081 q 273 1050 321 1050 q 199 1067 238 1050 q 121 1085 159 1085 q 22 1054 71 1085 l 22 1196 z "},"ĩ":{"ha":349,"x_min":5,"x_max":345,"o":"m 265 712 l 265 0 l 85 0 l 85 712 l 265 712 m 5 939 q 94 970 46 970 q 168 952 129 970 q 245 935 208 935 q 345 966 296 935 l 345 823 q 256 792 304 792 q 182 810 221 792 q 104 827 142 827 q 5 796 54 827 l 5 939 z "},"Ī":{"ha":383,"x_min":22,"x_max":361,"o":"m 282 970 l 282 0 l 102 0 l 102 970 l 282 970 m 361 1227 l 361 1085 l 22 1085 l 22 1227 l 361 1227 z "},"ī":{"ha":349,"x_min":5,"x_max":345,"o":"m 265 712 l 265 0 l 85 0 l 85 712 l 265 712 m 345 970 l 345 827 l 5 827 l 5 970 l 345 970 z "},"Ĭ":{"ha":383,"x_min":-8,"x_max":392,"o":"m 282 970 l 282 0 l 102 0 l 102 970 l 282 970 m -8 1227 l 111 1227 q 192 1133 111 1133 q 273 1227 273 1133 l 392 1227 q 192 1031 392 1031 q -8 1227 -8 1031 z "},"ĭ":{"ha":349,"x_min":-25,"x_max":375,"o":"m 265 712 l 265 0 l 85 0 l 85 712 l 265 712 m -25 970 l 94 970 q 175 875 94 875 q 256 970 256 875 l 375 970 q 175 773 375 773 q -25 970 -25 773 z "},"Į":{"ha":383,"x_min":6,"x_max":284,"o":"m 102 0 l 102 970 l 281 970 l 281 0 q 134 -134 134 -65 q 191 -180 134 -180 q 284 -167 249 -180 l 284 -275 q 183 -289 243 -289 q 6 -151 6 -289 q 102 0 6 -62 z "},"į":{"ha":349,"x_min":-11,"x_max":267,"o":"m 264 970 l 264 827 l 85 827 l 85 970 l 264 970 m 85 0 l 85 712 l 264 712 l 264 0 q 117 -134 117 -65 q 174 -180 117 -180 q 267 -167 232 -180 l 267 -275 q 166 -289 226 -289 q -11 -151 -11 -289 q 85 0 -11 -62 z "},"İ":{"ha":383,"x_min":102,"x_max":281,"o":"m 281 970 l 281 0 l 102 0 l 102 970 l 281 970 m 271 1227 l 271 1078 l 112 1078 l 112 1227 l 271 1227 z "},"Ĳ":{"ha":885,"x_min":102,"x_max":783,"o":"m 281 970 l 281 0 l 102 0 l 102 970 l 281 970 m 783 970 l 783 279 q 400 0 783 0 l 400 156 q 604 279 604 156 l 604 970 l 783 970 z "},"ĳ":{"ha":699,"x_min":85,"x_max":614,"o":"m 264 970 l 264 827 l 85 827 l 85 970 l 264 970 m 264 712 l 264 0 l 85 0 l 85 712 l 264 712 m 614 970 l 614 827 l 434 827 l 434 970 l 614 970 m 614 712 l 614 54 q 490 -297 614 -161 l 349 -199 q 434 54 434 -107 l 434 712 l 614 712 z "},"Ĵ":{"ha":502,"x_min":17,"x_max":473,"o":"m 400 970 l 400 279 q 17 0 400 0 l 17 156 q 220 279 220 156 l 220 970 l 400 970 m 253 1227 l 355 1227 l 473 1051 l 351 1051 l 304 1139 l 256 1051 l 134 1051 l 253 1227 z "},"ĵ":{"ha":349,"x_min":0,"x_max":346,"o":"m 264 712 l 264 54 q 141 -297 264 -161 l 0 -199 q 85 54 85 -107 l 85 712 l 264 712 m 125 970 l 227 970 l 346 793 l 224 793 l 176 882 l 129 793 l 7 793 l 125 970 z "},"Ķ":{"ha":973,"x_min":102,"x_max":1007,"o":"m 281 970 l 281 0 l 102 0 l 102 970 l 281 970 m 964 970 l 550 517 l 1007 0 l 758 0 l 383 453 l 383 570 l 744 970 l 964 970 m 627 -68 l 526 -258 l 346 -258 l 448 -68 l 627 -68 z "},"ķ":{"ha":818,"x_min":85,"x_max":801,"o":"m 85 0 l 85 970 l 264 970 l 264 656 q 497 712 375 712 q 770 507 770 712 q 580 273 770 357 l 801 0 l 581 0 l 395 254 l 395 338 q 590 473 590 379 q 461 570 590 570 q 264 513 371 570 l 264 0 l 85 0 m 550 -68 l 448 -258 l 269 -258 l 370 -68 l 550 -68 z "},"ĸ":{"ha":785,"x_min":85,"x_max":819,"o":"m 808 712 l 503 391 l 819 0 l 590 0 l 330 342 l 330 412 l 592 712 l 808 712 m 85 0 l 85 712 l 264 712 l 264 0 l 85 0 z "},"Ĺ":{"ha":734,"x_min":76,"x_max":667,"o":"m 281 970 l 281 156 l 667 156 l 667 0 l 102 0 l 102 970 l 281 970 m 174 1227 l 390 1227 l 228 1052 l 76 1052 l 174 1227 z "},"ĺ":{"ha":349,"x_min":72,"x_max":386,"o":"m 264 970 l 264 0 l 85 0 l 85 970 l 264 970 m 170 1244 l 386 1244 l 224 1069 l 72 1069 l 170 1244 z "},"Ļ":{"ha":734,"x_min":102,"x_max":667,"o":"m 281 970 l 281 156 l 667 156 l 667 0 l 102 0 l 102 970 l 281 970 m 491 -68 l 389 -258 l 210 -258 l 311 -68 l 491 -68 z "},"ļ":{"ha":349,"x_min":-20,"x_max":264,"o":"m 264 970 l 264 0 l 85 0 l 85 970 l 264 970 m 261 -68 l 159 -258 l -20 -258 l 81 -68 l 261 -68 z "},"Ľ":{"ha":734,"x_min":102,"x_max":668,"o":"m 281 970 l 281 156 l 667 156 l 667 0 l 102 0 l 102 970 l 281 970 m 668 970 l 566 675 l 400 675 l 502 970 l 668 970 z "},"ľ":{"ha":349,"x_min":85,"x_max":600,"o":"m 264 970 l 264 0 l 85 0 l 85 970 l 264 970 m 600 970 l 498 675 l 332 675 l 434 970 l 600 970 z "},"Ŀ":{"ha":734,"x_min":102,"x_max":667,"o":"m 281 970 l 281 156 l 667 156 l 667 0 l 102 0 l 102 970 l 281 970 m 446 485 q 531 570 446 570 q 616 485 616 570 q 531 400 616 400 q 446 485 446 400 z "},"ŀ":{"ha":349,"x_min":85,"x_max":517,"o":"m 264 970 l 264 0 l 85 0 l 85 970 l 264 970 m 348 388 q 433 473 348 473 q 517 388 517 473 q 433 303 517 303 q 348 388 348 303 z "},"Ņ":{"ha":1068,"x_min":102,"x_max":966,"o":"m 102 0 l 102 970 l 281 970 l 793 263 l 793 970 l 966 970 l 966 0 l 787 0 l 275 722 l 275 0 l 102 0 m 675 -68 l 573 -258 l 393 -258 l 495 -68 l 675 -68 z "},"ņ":{"ha":817,"x_min":85,"x_max":732,"o":"m 85 0 l 85 712 l 224 712 l 246 608 q 479 712 349 712 q 732 449 732 712 l 732 0 l 553 0 l 553 449 q 435 567 553 567 q 264 497 348 567 l 264 0 l 85 0 m 529 -68 l 427 -258 l 248 -258 l 349 -68 l 529 -68 z "},"ŉ":{"ha":885,"x_min":-102,"x_max":800,"o":"m 153 0 l 153 712 l 292 712 l 314 608 q 547 712 416 712 q 800 449 800 712 l 800 0 l 621 0 l 621 449 q 503 567 621 567 q 332 497 416 567 l 332 0 l 153 0 m 166 970 l 64 675 l -102 675 l 0 970 l 166 970 z "},"Ŋ":{"ha":1068,"x_min":102,"x_max":966,"o":"m 785 3 l 275 722 l 275 0 l 102 0 l 102 970 l 281 970 l 793 263 l 793 970 l 966 970 l 966 54 q 843 -297 966 -161 l 702 -199 q 785 3 772 -122 z "},"ŋ":{"ha":817,"x_min":85,"x_max":732,"o":"m 553 449 q 435 567 553 567 q 264 497 348 567 l 264 0 l 85 0 l 85 712 l 224 712 l 246 608 q 479 712 349 712 q 732 447 732 712 l 732 54 q 609 -297 732 -161 l 468 -199 q 553 54 553 -107 l 553 449 z "},"Ō":{"ha":1102,"x_min":68,"x_max":1034,"o":"m 254 488 q 555 149 254 149 q 848 488 848 149 q 555 821 848 821 q 254 488 254 821 m 68 484 q 555 977 68 977 q 1034 484 1034 977 q 555 -7 1034 -7 q 68 484 90 -7 m 721 1227 l 721 1085 l 382 1085 l 382 1227 l 721 1227 z "},"ō":{"ha":807,"x_min":51,"x_max":756,"o":"m 231 359 q 404 136 231 136 q 576 359 576 136 q 404 576 576 576 q 231 359 231 576 m 51 356 q 404 714 51 714 q 756 356 756 714 q 404 -1 756 -1 q 51 356 52 -1 m 573 970 l 573 827 l 234 827 l 234 970 l 573 970 z "},"Ŏ":{"ha":1102,"x_min":68,"x_max":1034,"o":"m 254 488 q 555 149 254 149 q 848 488 848 149 q 555 821 848 821 q 254 488 254 821 m 68 484 q 555 977 68 977 q 1034 484 1034 977 q 555 -7 1034 -7 q 68 484 90 -7 m 351 1227 l 470 1227 q 551 1133 470 1133 q 633 1227 633 1133 l 751 1227 q 551 1031 751 1031 q 351 1227 351 1031 z "},"ŏ":{"ha":807,"x_min":51,"x_max":756,"o":"m 231 359 q 404 136 231 136 q 576 359 576 136 q 404 576 576 576 q 231 359 231 576 m 51 356 q 404 714 51 714 q 756 356 756 714 q 404 -1 756 -1 q 51 356 52 -1 m 203 970 l 322 970 q 404 875 322 875 q 485 970 485 875 l 604 970 q 404 773 604 773 q 203 970 203 773 z "},"Ő":{"ha":1102,"x_min":68,"x_max":1034,"o":"m 254 488 q 555 149 254 149 q 848 488 848 149 q 555 821 848 821 q 254 488 254 821 m 68 484 q 555 977 68 977 q 1034 484 1034 977 q 555 -7 1034 -7 q 68 484 90 -7 m 388 1227 l 604 1227 l 442 1052 l 290 1052 l 388 1227 m 663 1227 l 880 1227 l 718 1052 l 566 1052 l 663 1227 z "},"ő":{"ha":807,"x_min":51,"x_max":756,"o":"m 231 359 q 404 136 231 136 q 576 359 576 136 q 404 576 576 576 q 231 359 231 576 m 51 356 q 404 714 51 714 q 756 356 756 714 q 404 -1 756 -1 q 51 356 52 -1 m 261 970 l 477 970 l 315 794 l 163 794 l 261 970 m 536 970 l 753 970 l 591 794 l 439 794 l 536 970 z "},"Ŕ":{"ha":899,"x_min":102,"x_max":916,"o":"m 102 1 l 102 970 l 543 970 q 840 710 840 970 q 608 419 840 534 l 916 0 l 689 0 l 394 422 l 394 505 q 652 705 652 549 q 531 812 652 812 l 285 812 l 285 1 l 102 1 m 434 1227 l 650 1227 l 488 1052 l 336 1052 l 434 1227 z "},"ŕ":{"ha":461,"x_min":85,"x_max":474,"o":"m 85 0 l 85 712 l 224 712 l 246 621 q 444 712 340 712 l 444 567 q 264 484 344 567 l 264 0 l 85 0 m 258 970 l 474 970 l 312 794 l 160 794 l 258 970 z "},"Ŗ":{"ha":899,"x_min":102,"x_max":916,"o":"m 102 1 l 102 970 l 543 970 q 840 710 840 970 q 608 419 840 534 l 916 0 l 689 0 l 394 422 l 394 505 q 652 705 652 549 q 531 812 652 812 l 285 812 l 285 1 l 102 1 m 582 -68 l 480 -258 l 300 -258 l 402 -68 l 582 -68 z "},"ŗ":{"ha":461,"x_min":-18,"x_max":444,"o":"m 85 0 l 85 712 l 224 712 l 246 621 q 444 712 340 712 l 444 567 q 264 484 344 567 l 264 0 l 85 0 m 263 -68 l 161 -258 l -18 -258 l 83 -68 l 263 -68 z "},"Ŝ":{"ha":868,"x_min":51,"x_max":817,"o":"m 85 41 l 85 203 q 414 149 231 149 q 637 298 637 149 q 500 407 637 407 l 349 407 q 51 678 51 407 q 475 977 51 977 q 783 929 637 977 l 783 766 q 475 821 637 821 q 231 678 231 821 q 349 570 231 570 l 500 570 q 817 298 817 570 q 414 -7 817 -7 q 85 41 231 -7 m 383 1227 l 485 1227 l 604 1051 l 481 1051 l 434 1139 l 387 1051 l 264 1051 l 383 1227 z "},"ŝ":{"ha":695,"x_min":51,"x_max":654,"o":"m 85 34 l 85 183 q 359 136 203 136 q 475 210 475 136 q 397 281 475 281 l 268 281 q 51 495 51 281 q 368 719 51 719 q 621 678 502 719 l 621 529 q 363 576 502 576 q 217 502 217 576 q 302 431 217 431 l 417 431 q 654 217 654 431 q 352 -7 654 -7 q 85 34 203 -7 m 302 970 l 404 970 l 522 793 l 400 793 l 353 882 l 305 793 l 183 793 l 302 970 z "},"Ş":{"ha":868,"x_min":51,"x_max":817,"o":"m 357 -5 q 85 41 208 1 l 85 203 q 414 149 231 149 q 637 298 637 149 q 500 407 637 407 l 349 407 q 51 678 51 407 q 475 977 51 977 q 783 929 637 977 l 783 766 q 475 821 637 821 q 231 678 231 821 q 349 570 231 570 l 500 570 q 817 298 817 570 q 466 -5 817 14 l 441 -52 q 586 -162 586 -52 q 402 -286 586 -286 q 256 -252 329 -286 l 256 -165 q 402 -199 329 -199 q 475 -162 475 -199 q 419 -132 475 -132 l 295 -132 l 357 -5 z "},"ş":{"ha":695,"x_min":51,"x_max":654,"o":"m 282 -5 q 85 34 175 3 l 85 183 q 359 136 203 136 q 475 210 475 136 q 397 281 475 281 l 268 281 q 51 495 51 281 q 368 719 51 719 q 621 678 502 719 l 621 529 q 363 576 502 576 q 217 502 217 576 q 302 431 217 431 l 417 431 q 654 217 654 431 q 391 -6 654 8 l 366 -52 q 511 -162 511 -52 q 328 -286 511 -286 q 181 -252 254 -286 l 181 -165 q 328 -199 254 -199 q 401 -162 401 -199 q 345 -132 401 -132 l 220 -132 l 282 -5 z "},"Ș":{"ha":868,"x_min":51,"x_max":817,"o":"m 85 41 l 85 203 q 414 149 231 149 q 637 298 637 149 q 500 407 637 407 l 349 407 q 51 678 51 407 q 475 977 51 977 q 783 929 637 977 l 783 766 q 475 821 637 821 q 231 678 231 821 q 349 570 231 570 l 500 570 q 817 298 817 570 q 414 -7 817 -7 q 85 41 231 -7 m 575 -68 l 473 -258 l 294 -258 l 395 -68 l 575 -68 z "},"ș":{"ha":695,"x_min":51,"x_max":654,"o":"m 85 34 l 85 183 q 359 136 203 136 q 475 210 475 136 q 397 281 475 281 l 268 281 q 51 495 51 281 q 368 719 51 719 q 621 678 502 719 l 621 529 q 363 576 502 576 q 217 502 217 576 q 302 431 217 431 l 417 431 q 654 217 654 431 q 352 -7 654 -7 q 85 34 203 -7 m 494 -68 l 392 -258 l 212 -258 l 314 -68 l 494 -68 z "},"Ţ":{"ha":736,"x_min":0,"x_max":736,"o":"m 736 970 l 736 814 l 458 814 l 458 0 l 278 0 l 278 814 l 0 814 l 0 970 l 736 970 m 452 -68 l 351 -258 l 171 -258 l 273 -68 l 452 -68 z "},"ţ":{"ha":461,"x_min":51,"x_max":424,"o":"m 85 827 l 218 827 l 245 712 l 424 712 l 424 570 l 264 570 l 264 242 q 351 142 264 142 l 424 142 l 424 0 l 264 0 q 85 192 85 0 l 85 827 m 332 -68 l 231 -258 l 51 -258 l 153 -68 l 332 -68 z "},"Ŧ":{"ha":736,"x_min":0,"x_max":736,"o":"m 278 556 l 278 814 l 0 814 l 0 970 l 736 970 l 736 814 l 458 814 l 458 556 l 736 556 l 736 414 l 458 414 l 458 0 l 278 0 l 278 414 l 0 414 l 0 556 l 278 556 z "},"ŧ":{"ha":451,"x_min":0,"x_max":414,"o":"m 75 443 l 75 827 l 208 827 l 235 712 l 414 712 l 414 570 l 254 570 l 254 443 l 414 443 l 414 300 l 254 300 l 254 242 q 340 142 254 142 l 414 142 l 414 0 l 254 0 q 75 192 75 0 l 75 300 l 0 300 l 0 443 l 75 443 z "},"Ũ":{"ha":1038,"x_min":102,"x_max":936,"o":"m 102 381 l 102 970 l 281 970 l 281 381 q 519 149 281 149 q 756 381 756 149 l 756 970 l 936 970 l 936 381 q 519 -7 936 -7 q 102 381 102 -7 m 349 1196 q 437 1227 390 1227 q 512 1210 473 1227 q 589 1192 551 1192 q 688 1223 640 1192 l 688 1081 q 600 1050 648 1050 q 526 1067 565 1050 q 448 1085 486 1085 q 349 1054 397 1085 l 349 1196 z "},"ũ":{"ha":810,"x_min":85,"x_max":726,"o":"m 726 712 l 726 0 l 585 0 l 564 91 q 303 0 441 0 q 85 258 85 0 l 85 712 l 264 712 l 264 263 q 368 145 264 145 q 546 215 455 145 l 546 712 l 726 712 m 236 939 q 324 970 277 970 q 399 952 359 970 q 476 935 438 935 q 575 966 527 935 l 575 823 q 487 792 534 792 q 412 810 452 792 q 335 827 373 827 q 236 796 284 827 l 236 939 z "},"Ū":{"ha":1038,"x_min":102,"x_max":936,"o":"m 102 381 l 102 970 l 281 970 l 281 381 q 519 149 281 149 q 756 381 756 149 l 756 970 l 936 970 l 936 381 q 519 -7 936 -7 q 102 381 102 -7 m 688 1227 l 688 1085 l 349 1085 l 349 1227 l 688 1227 z "},"ū":{"ha":810,"x_min":85,"x_max":726,"o":"m 726 712 l 726 0 l 585 0 l 564 91 q 303 0 441 0 q 85 258 85 0 l 85 712 l 264 712 l 264 263 q 368 145 264 145 q 546 215 455 145 l 546 712 l 726 712 m 575 970 l 575 827 l 236 827 l 236 970 l 575 970 z "},"Ŭ":{"ha":1038,"x_min":102,"x_max":936,"o":"m 102 381 l 102 970 l 281 970 l 281 381 q 519 149 281 149 q 756 381 756 149 l 756 970 l 936 970 l 936 381 q 519 -7 936 -7 q 102 381 102 -7 m 319 1227 l 437 1227 q 519 1133 437 1133 q 600 1227 600 1133 l 719 1227 q 519 1031 719 1031 q 319 1227 319 1031 z "},"ŭ":{"ha":810,"x_min":85,"x_max":726,"o":"m 726 712 l 726 0 l 585 0 l 564 91 q 303 0 441 0 q 85 258 85 0 l 85 712 l 264 712 l 264 263 q 368 145 264 145 q 546 215 455 145 l 546 712 l 726 712 m 205 970 l 324 970 q 406 875 324 875 q 487 970 487 875 l 606 970 q 406 773 606 773 q 205 970 205 773 z "},"Ű":{"ha":1038,"x_min":102,"x_max":936,"o":"m 102 381 l 102 970 l 281 970 l 281 381 q 519 149 281 149 q 756 381 756 149 l 756 970 l 936 970 l 936 381 q 519 -7 936 -7 q 102 381 102 -7 m 356 1227 l 572 1227 l 410 1052 l 258 1052 l 356 1227 m 631 1227 l 848 1227 l 686 1052 l 534 1052 l 631 1227 z "},"ű":{"ha":810,"x_min":85,"x_max":726,"o":"m 726 712 l 726 0 l 585 0 l 564 91 q 303 0 441 0 q 85 258 85 0 l 85 712 l 264 712 l 264 263 q 368 145 264 145 q 546 215 455 145 l 546 712 l 726 712 m 208 970 l 425 970 l 262 794 l 111 794 l 208 970 m 484 970 l 700 970 l 538 794 l 386 794 l 484 970 z "},"Ų":{"ha":1038,"x_min":102,"x_max":936,"o":"m 446 -3 q 102 381 102 29 l 102 970 l 281 970 l 281 381 q 519 149 281 149 q 756 381 756 149 l 756 970 l 936 970 l 936 381 q 615 -1 936 41 q 483 -134 483 -68 q 541 -180 483 -180 q 633 -167 598 -180 l 633 -275 q 532 -289 592 -289 q 355 -151 355 -289 q 446 -3 355 -65 z "},"ų":{"ha":810,"x_min":85,"x_max":726,"o":"m 546 0 l 546 91 q 303 0 434 0 q 85 258 85 0 l 85 712 l 264 712 l 264 263 q 368 145 264 145 q 546 215 455 145 l 546 712 l 726 712 l 726 0 q 575 -134 575 -65 q 633 -180 575 -180 q 726 -167 690 -180 l 726 -275 q 625 -289 684 -289 q 448 -151 448 -289 q 546 0 448 -62 z "},"Ŵ":{"ha":1282,"x_min":24,"x_max":1258,"o":"m 24 970 l 206 970 l 310 273 l 562 970 l 735 970 l 971 300 l 1081 970 l 1258 970 l 1076 0 l 905 0 l 638 761 l 352 0 l 183 0 l 24 970 m 590 1227 l 692 1227 l 810 1051 l 688 1051 l 641 1139 l 593 1051 l 471 1051 l 590 1227 z "},"ŵ":{"ha":1084,"x_min":17,"x_max":1054,"o":"m 17 712 l 198 712 l 290 216 l 455 712 l 609 712 l 787 216 l 867 712 l 1054 712 l 868 0 l 699 0 l 532 505 l 362 0 l 191 0 l 17 712 m 485 970 l 587 970 l 705 793 l 583 793 l 536 882 l 488 793 l 366 793 l 485 970 z "},"Ŷ":{"ha":882,"x_min":17,"x_max":926,"o":"m 17 970 l 210 970 l 483 503 l 739 970 l 926 970 l 569 339 l 569 0 l 389 0 l 389 339 l 17 970 m 420 1227 l 522 1227 l 641 1051 l 519 1051 l 471 1139 l 424 1051 l 302 1051 l 420 1227 z "},"ŷ":{"ha":733,"x_min":0,"x_max":733,"o":"m 0 712 l 191 712 l 370 199 l 546 712 l 733 712 l 437 -21 q 186 -297 359 -215 l 99 -174 q 273 -4 218 -122 l 0 712 m 316 970 l 418 970 l 536 793 l 414 793 l 367 882 l 319 793 l 197 793 l 316 970 z "},"ſ":{"ha":360,"x_min":85,"x_max":564,"o":"m 85 0 l 85 712 q 405 1005 85 1005 q 564 978 492 1005 l 564 836 q 404 863 496 863 q 264 712 264 863 l 264 0 l 85 0 z "},"Ё":{"ha":840,"x_min":102,"x_max":775,"o":"m 766 970 l 766 815 l 280 815 l 280 571 l 743 571 l 743 410 l 278 410 l 278 156 l 775 156 l 775 0 l 102 0 l 102 970 l 766 970 m 620 1227 l 620 1099 l 474 1099 l 474 1227 l 620 1227 m 389 1227 l 389 1099 l 243 1099 l 243 1227 l 389 1227 z "},"А":{"ha":1059,"x_min":17,"x_max":1042,"o":"m 201 0 l 17 0 l 429 970 l 622 970 l 1042 0 l 849 0 l 739 264 l 416 264 l 478 420 l 673 420 l 521 785 l 201 0 z "},"Б":{"ha":876,"x_min":102,"x_max":825,"o":"m 781 970 l 781 814 l 282 814 l 282 158 l 504 158 q 645 273 645 158 q 467 400 645 400 l 394 400 l 394 556 l 473 556 q 825 280 825 556 q 515 0 825 0 l 102 0 l 102 970 l 781 970 z "},"В":{"ha":896,"x_min":102,"x_max":845,"o":"m 102 0 l 102 970 l 556 970 q 833 744 833 970 q 652 507 833 578 q 845 287 845 471 q 542 0 845 0 l 102 0 m 534 156 q 654 278 654 156 q 475 429 654 429 l 421 429 l 421 545 q 645 732 645 583 q 545 814 645 814 l 281 814 l 281 156 l 534 156 z "},"Г":{"ha":734,"x_min":102,"x_max":734,"o":"m 102 0 l 102 970 l 734 970 l 734 814 l 281 814 l 281 0 l 102 0 z "},"Д":{"ha":1206,"x_min":0,"x_max":1156,"o":"m 392 156 l 850 156 l 850 814 l 586 814 q 392 156 586 272 m 0 -258 l 0 156 l 125 156 q 406 814 406 156 l 406 970 l 1030 970 l 1030 156 l 1156 156 l 1156 -258 l 976 -258 l 976 0 l 179 0 l 179 -258 l 0 -258 z "},"Е":{"ha":840,"x_min":102,"x_max":775,"o":"m 766 970 l 766 815 l 280 815 l 280 571 l 743 571 l 743 410 l 278 410 l 278 156 l 775 156 l 775 0 l 102 0 l 102 970 l 766 970 z "},"Ж":{"ha":1498,"x_min":17,"x_max":1481,"o":"m 17 0 q 296 443 238 387 q 407 514 354 499 q 236 684 297 541 q 101 827 174 827 l 47 827 l 47 970 l 120 970 q 392 772 309 970 q 571 574 476 574 l 571 443 q 472 394 518 443 q 243 0 425 345 l 17 0 m 839 970 l 839 0 l 659 0 l 659 970 l 839 970 m 1255 0 q 1026 394 1073 345 q 927 443 980 443 l 927 574 q 1106 772 1022 574 q 1378 970 1190 970 l 1451 970 l 1451 827 l 1397 827 q 1262 684 1324 827 q 1091 514 1201 541 q 1202 443 1144 499 q 1481 0 1260 387 l 1255 0 z "},"З":{"ha":756,"x_min":68,"x_max":715,"o":"m 68 936 q 353 977 203 977 q 715 712 715 977 q 588 492 715 552 q 715 271 715 434 q 353 -7 715 -7 q 68 34 203 -7 l 68 197 q 353 149 203 149 q 536 271 536 149 q 406 414 536 414 l 170 414 l 170 570 l 404 570 q 536 712 536 570 q 353 821 536 821 q 68 773 203 821 l 68 936 z "},"И":{"ha":1007,"x_min":102,"x_max":905,"o":"m 732 0 l 732 697 l 275 0 l 102 0 l 102 970 l 275 970 l 275 264 l 732 970 l 905 970 l 905 0 l 732 0 z "},"Й":{"ha":1007,"x_min":102,"x_max":905,"o":"m 305 1210 l 424 1210 q 505 1115 424 1115 q 587 1210 587 1115 l 705 1210 q 505 1013 705 1013 q 305 1210 305 1013 m 732 0 l 732 684 l 281 0 l 102 0 l 102 970 l 275 970 l 275 264 l 726 970 l 905 970 l 905 0 l 732 0 z "},"К":{"ha":941,"x_min":102,"x_max":924,"o":"m 281 970 l 281 0 l 102 0 l 102 970 l 281 970 m 697 0 q 469 394 515 345 q 370 443 422 443 l 370 574 q 548 772 465 574 q 821 970 632 970 l 893 970 l 893 827 l 840 827 q 705 684 766 827 q 534 514 644 541 q 645 443 587 499 q 924 0 703 387 l 697 0 z "},"Л":{"ha":1027,"x_min":0,"x_max":925,"o":"m 0 142 q 233 473 233 142 l 233 970 l 925 970 l 925 0 l 745 0 l 745 814 l 413 814 l 413 473 q 0 0 413 0 l 0 142 z "},"М":{"ha":1221,"x_min":102,"x_max":1119,"o":"m 102 0 l 102 970 l 288 970 l 617 234 l 939 970 l 1119 970 l 1119 0 l 953 0 l 953 675 l 690 0 l 536 0 l 268 675 l 268 0 l 102 0 z "},"Н":{"ha":1061,"x_min":102,"x_max":960,"o":"m 102 0 l 102 970 l 281 970 l 281 576 l 780 576 l 780 970 l 960 970 l 960 0 l 780 0 l 780 420 l 281 420 l 281 0 l 102 0 z "},"О":{"ha":1102,"x_min":68,"x_max":1034,"o":"m 254 488 q 555 149 254 149 q 848 488 848 149 q 555 821 848 821 q 254 488 254 821 m 68 484 q 555 977 68 977 q 1034 484 1034 977 q 555 -7 1034 -7 q 68 484 90 -7 z "},"П":{"ha":1061,"x_min":102,"x_max":960,"o":"m 102 0 l 102 970 l 960 970 l 960 0 l 780 0 l 780 814 l 281 814 l 281 0 l 102 0 z "},"Р":{"ha":850,"x_min":102,"x_max":833,"o":"m 102 0 l 102 970 l 536 970 q 833 696 833 970 q 427 338 833 400 l 401 498 q 645 691 645 542 q 524 812 645 812 l 281 812 l 281 0 l 102 0 z "},"С":{"ha":943,"x_min":68,"x_max":875,"o":"m 875 41 q 590 -7 749 -7 q 68 498 68 -7 q 590 977 68 977 q 875 929 749 977 l 875 766 q 604 821 749 821 q 254 498 254 821 q 604 149 254 149 q 875 203 749 149 l 875 41 z "},"Т":{"ha":736,"x_min":0,"x_max":736,"o":"m 736 970 l 736 814 l 458 814 l 458 0 l 278 0 l 278 814 l 0 814 l 0 970 l 736 970 z "},"У":{"ha":886,"x_min":34,"x_max":869,"o":"m 869 970 l 535 182 q 271 0 458 0 q 111 47 184 0 l 111 190 q 269 142 183 142 q 385 214 360 142 l 34 970 l 227 970 l 467 407 l 677 970 l 869 970 z "},"Ф":{"ha":1169,"x_min":68,"x_max":1101,"o":"m 495 77 q 68 484 68 102 q 495 893 68 868 l 495 970 l 674 970 l 674 894 q 1101 484 1101 871 q 674 76 1101 98 l 674 0 l 495 0 l 495 77 m 495 233 l 495 736 q 254 488 254 712 q 495 233 254 258 m 674 737 l 674 233 q 916 488 916 256 q 674 737 916 715 z "},"Х":{"ha":1019,"x_min":17,"x_max":1007,"o":"m 399 485 l 17 970 l 244 970 l 512 616 l 780 970 l 1007 970 l 626 485 l 1007 0 l 780 0 l 512 354 l 244 0 l 17 0 l 399 485 z "},"Ц":{"ha":1049,"x_min":102,"x_max":1036,"o":"m 102 0 l 102 970 l 281 970 l 281 156 l 730 156 l 730 970 l 910 970 l 910 156 l 1036 156 l 1036 -258 l 856 -258 l 856 0 l 102 0 z "},"Ч":{"ha":941,"x_min":85,"x_max":894,"o":"m 894 970 l 894 0 l 714 0 l 714 396 q 423 319 581 319 q 85 672 85 319 l 85 970 l 264 970 l 264 670 q 440 477 264 477 q 714 568 595 477 l 714 970 l 894 970 z "},"Ш":{"ha":1353,"x_min":102,"x_max":1251,"o":"m 102 0 l 102 970 l 281 970 l 281 156 l 587 156 l 587 970 l 766 970 l 766 156 l 1072 156 l 1072 970 l 1251 970 l 1251 0 l 102 0 z "},"Щ":{"ha":1428,"x_min":102,"x_max":1377,"o":"m 102 0 l 102 970 l 281 970 l 281 156 l 587 156 l 587 970 l 766 970 l 766 156 l 1072 156 l 1072 970 l 1251 970 l 1251 156 l 1377 156 l 1377 -258 l 1197 -258 l 1197 0 l 102 0 z "},"Ъ":{"ha":1160,"x_min":0,"x_max":1092,"o":"m 520 970 l 520 158 l 797 158 q 904 273 904 158 q 760 400 904 400 l 633 400 l 633 556 l 767 556 q 1092 280 1092 556 q 808 0 1092 0 l 340 0 l 340 814 l 0 814 l 0 970 l 520 970 z "},"Ы":{"ha":1163,"x_min":102,"x_max":1116,"o":"m 281 970 l 281 158 l 558 158 q 665 273 665 158 q 522 400 665 400 l 394 400 l 394 556 l 528 556 q 853 280 853 556 q 570 0 853 0 l 102 0 l 102 970 l 281 970 m 936 0 l 936 970 l 1116 970 l 1116 0 l 936 0 z "},"Ь":{"ha":867,"x_min":102,"x_max":853,"o":"m 281 970 l 281 158 l 558 158 q 665 273 665 158 q 522 400 665 400 l 394 400 l 394 556 l 528 556 q 853 280 853 556 q 570 0 853 0 l 102 0 l 102 970 l 281 970 z "},"Э":{"ha":932,"x_min":85,"x_max":865,"o":"m 85 197 q 342 149 210 149 q 676 414 656 149 l 134 414 l 134 570 l 677 570 q 342 821 661 821 q 85 773 210 821 l 85 936 q 356 977 210 977 q 865 498 865 977 q 356 -7 865 -7 q 85 34 210 -7 l 85 197 z "},"Ю":{"ha":1358,"x_min":102,"x_max":1290,"o":"m 102 0 l 102 970 l 281 970 l 281 570 l 447 570 q 871 977 484 977 q 1290 484 1290 977 q 871 -7 1290 -7 q 446 414 477 -7 l 281 414 l 281 0 l 102 0 m 871 149 q 1103 488 1103 149 q 871 821 1103 821 q 632 488 632 821 q 871 149 632 149 z "},"Я":{"ha":932,"x_min":17,"x_max":831,"o":"m 648 1 l 648 812 l 408 812 q 281 698 281 812 q 545 505 281 549 l 545 422 l 250 0 l 17 0 l 324 419 q 93 696 93 521 q 410 970 93 970 l 831 970 l 831 1 l 648 1 z "},"а":{"ha":770,"x_min":51,"x_max":685,"o":"m 51 222 q 360 434 51 434 q 505 420 433 434 l 505 474 q 368 570 505 570 q 109 536 251 570 l 109 678 q 368 712 251 712 q 685 477 685 712 l 685 0 l 581 0 l 517 64 q 312 0 424 0 q 51 222 51 0 m 505 298 q 360 312 437 312 q 231 224 231 312 q 339 129 231 129 q 505 184 429 129 l 505 298 z "},"б":{"ha":862,"x_min":51,"x_max":811,"o":"m 811 353 q 433 -7 811 -7 q 51 353 51 -7 l 51 573 q 474 970 51 970 q 788 1044 672 970 l 788 892 q 472 827 684 827 q 234 605 234 827 q 468 712 317 712 q 811 368 811 712 l 811 353 m 433 136 q 631 353 631 136 q 439 566 631 566 q 234 353 234 566 q 433 136 234 136 z "},"в":{"ha":774,"x_min":85,"x_max":740,"o":"m 85 0 l 85 712 l 492 712 q 728 534 728 712 q 595 370 728 423 q 740 195 740 334 q 477 0 740 0 l 85 0 m 450 142 q 555 219 555 142 q 458 292 555 292 l 384 292 l 384 414 q 547 515 547 438 q 487 570 547 570 l 264 570 l 264 142 l 450 142 z "},"г":{"ha":558,"x_min":85,"x_max":558,"o":"m 85 0 l 85 712 l 558 712 l 558 570 l 264 570 l 264 0 l 85 0 z "},"д":{"ha":996,"x_min":0,"x_max":972,"o":"m 362 142 l 667 142 l 667 570 l 470 570 q 362 142 470 272 m 0 -258 l 0 142 l 125 142 q 290 570 290 142 l 290 712 l 846 712 l 846 142 l 972 142 l 972 -258 l 792 -258 l 792 0 l 179 0 l 179 -258 l 0 -258 z "},"е":{"ha":749,"x_min":41,"x_max":699,"o":"m 375 712 q 699 381 699 712 q 693 293 699 337 l 220 293 q 441 142 220 142 q 657 163 549 142 l 657 20 q 428 0 563 0 q 41 364 41 0 q 375 712 41 712 m 220 418 l 524 418 l 524 423 q 375 571 524 571 q 220 418 233 571 z "},"ж":{"ha":1275,"x_min":17,"x_max":1258,"o":"m 17 0 l 130 179 q 328 372 241 357 q 222 487 264 405 q 115 569 181 569 l 61 569 l 61 715 l 134 715 q 344 577 288 715 q 476 438 399 438 l 476 314 q 323 167 423 314 l 223 0 l 17 0 m 726 717 l 726 0 l 547 0 l 547 717 l 726 717 m 1052 0 l 952 167 q 799 314 852 314 l 799 438 q 931 577 876 438 q 1141 715 987 715 l 1214 715 l 1214 569 l 1160 569 q 1053 487 1094 569 q 947 372 1011 405 q 1145 179 1034 357 l 1258 0 l 1052 0 z "},"з":{"ha":600,"x_min":41,"x_max":559,"o":"m 41 678 q 278 719 176 719 q 559 521 559 719 q 466 363 559 416 q 559 210 559 312 q 278 -7 559 -7 q 41 34 176 -7 l 41 183 q 278 136 176 136 q 380 210 380 136 q 304 292 380 292 l 109 292 l 109 434 l 302 434 q 380 521 380 434 q 278 576 380 576 q 41 529 176 576 l 41 678 z "},"и":{"ha":851,"x_min":85,"x_max":766,"o":"m 593 0 l 593 479 l 264 0 l 85 0 l 85 712 l 258 712 l 258 209 l 587 712 l 766 712 l 766 0 l 593 0 z "},"й":{"ha":851,"x_min":85,"x_max":766,"o":"m 593 0 l 593 479 l 264 0 l 85 0 l 85 712 l 258 712 l 258 209 l 587 712 l 766 712 l 766 0 l 593 0 m 226 970 l 345 970 q 426 875 345 875 q 507 970 507 875 l 626 970 q 426 773 626 773 q 226 970 226 773 z "},"к":{"ha":813,"x_min":85,"x_max":796,"o":"m 264 717 l 264 0 l 85 0 l 85 717 l 264 717 m 590 0 l 490 167 q 337 314 390 314 l 337 438 q 469 577 414 438 q 680 715 525 715 l 752 715 l 752 569 l 699 569 q 591 487 632 569 q 485 372 549 405 q 684 179 572 357 l 796 0 l 590 0 z "},"л":{"ha":842,"x_min":0,"x_max":758,"o":"m 0 142 q 161 285 161 142 l 161 712 l 758 712 l 758 0 l 578 0 l 578 570 l 340 570 l 340 285 q 0 0 340 0 l 0 142 z "},"м":{"ha":1024,"x_min":85,"x_max":939,"o":"m 85 0 l 85 712 l 278 712 l 519 226 l 746 712 l 939 712 l 939 0 l 773 0 l 773 434 l 564 0 l 465 0 l 251 434 l 251 0 l 85 0 z "},"н":{"ha":851,"x_min":85,"x_max":766,"o":"m 85 0 l 85 712 l 264 712 l 264 434 l 587 434 l 587 712 l 766 712 l 766 0 l 587 0 l 587 292 l 264 292 l 264 0 l 85 0 z "},"о":{"ha":827,"x_min":41,"x_max":787,"o":"m 41 356 q 414 726 41 726 q 787 356 787 726 q 414 -14 787 -14 q 41 356 42 -14 m 220 359 q 414 129 220 129 q 607 359 607 129 q 414 583 607 583 q 220 359 220 583 z "},"п":{"ha":851,"x_min":85,"x_max":766,"o":"m 85 0 l 85 712 l 766 712 l 766 0 l 587 0 l 587 570 l 264 570 l 264 0 l 85 0 z "},"р":{"ha":815,"x_min":85,"x_max":774,"o":"m 264 186 q 429 149 338 149 q 597 375 597 149 q 406 567 597 567 q 264 557 315 567 l 264 186 m 85 683 q 398 712 227 712 q 774 374 774 712 q 430 0 774 0 q 264 34 345 0 l 264 -258 l 85 -258 l 85 683 z "},"с":{"ha":644,"x_min":47,"x_max":610,"o":"m 610 20 q 427 0 522 0 q 47 370 47 0 q 427 712 47 712 q 610 692 522 712 l 610 549 q 441 570 522 570 q 227 370 227 570 q 441 142 227 142 q 610 163 522 142 l 610 20 z "},"т":{"ha":627,"x_min":0,"x_max":627,"o":"m 627 712 l 627 570 l 404 570 l 404 0 l 224 0 l 224 570 l 0 570 l 0 712 l 627 712 z "},"у":{"ha":733,"x_min":0,"x_max":733,"o":"m 0 712 l 191 712 l 370 199 l 546 712 l 733 712 l 437 -21 q 186 -297 359 -215 l 99 -174 q 273 -4 218 -122 l 0 712 z "},"ф":{"ha":1115,"x_min":41,"x_max":1074,"o":"m 468 -5 q 41 355 41 18 q 468 717 41 694 l 468 970 l 647 970 l 647 718 q 1074 355 1074 696 q 647 -5 1074 16 l 647 -258 l 468 -258 l 468 -5 m 468 138 l 468 574 q 227 359 227 551 q 468 138 227 161 m 647 574 l 647 138 q 888 359 888 158 q 647 574 888 554 z "},"х":{"ha":732,"x_min":0,"x_max":732,"o":"m 267 356 l 0 712 l 200 712 l 366 490 l 532 712 l 732 712 l 467 356 l 732 0 l 532 0 l 366 222 l 200 0 l 0 0 l 267 356 z "},"ц":{"ha":933,"x_min":85,"x_max":909,"o":"m 85 0 l 85 712 l 264 712 l 264 142 l 604 142 l 604 712 l 784 712 l 784 142 l 909 142 l 909 -258 l 730 -258 l 730 0 l 85 0 z "},"ч":{"ha":846,"x_min":68,"x_max":762,"o":"m 762 712 l 762 0 l 582 0 l 582 260 q 345 183 483 183 q 68 482 68 183 l 68 712 l 248 712 l 248 480 q 362 328 248 328 q 582 418 497 328 l 582 712 l 762 712 z "},"ш":{"ha":1183,"x_min":85,"x_max":1099,"o":"m 85 0 l 85 712 l 264 712 l 264 142 l 502 142 l 502 712 l 682 712 l 682 142 l 919 142 l 919 712 l 1099 712 l 1099 0 l 85 0 z "},"щ":{"ha":1248,"x_min":85,"x_max":1224,"o":"m 85 0 l 85 712 l 264 712 l 264 142 l 502 142 l 502 712 l 682 712 l 682 142 l 919 142 l 919 712 l 1099 712 l 1099 142 l 1224 142 l 1224 -258 l 1044 -258 l 1044 0 l 85 0 z "},"ъ":{"ha":890,"x_min":0,"x_max":849,"o":"m 386 712 l 386 144 l 588 144 q 668 218 668 144 q 599 271 668 271 l 478 271 l 478 413 l 606 413 q 849 212 849 413 q 600 0 849 0 l 206 0 l 206 570 l 0 570 l 0 712 l 386 712 z "},"ы":{"ha":1044,"x_min":85,"x_max":960,"o":"m 780 0 l 780 712 l 960 712 l 960 0 l 780 0 m 264 712 l 264 144 l 480 144 q 547 218 547 144 q 477 271 547 271 l 357 271 l 357 413 l 484 413 q 728 212 728 413 q 492 0 728 0 l 85 0 l 85 712 l 264 712 z "},"ь":{"ha":768,"x_min":85,"x_max":728,"o":"m 264 712 l 264 144 l 480 144 q 547 218 547 144 q 477 271 547 271 l 357 271 l 357 413 l 484 413 q 728 212 728 413 q 492 0 728 0 l 85 0 l 85 712 l 264 712 z "},"э":{"ha":641,"x_min":24,"x_max":600,"o":"m 24 163 q 200 142 112 142 q 410 292 389 142 l 67 292 l 67 435 l 411 435 q 200 570 393 570 q 24 549 112 570 l 24 692 q 214 712 112 712 q 600 370 600 712 q 214 0 600 0 q 24 20 112 0 l 24 163 z "},"ю":{"ha":1110,"x_min":85,"x_max":1069,"o":"m 739 136 q 883 359 883 136 q 739 576 883 576 q 588 359 588 576 q 739 136 588 136 m 85 0 l 85 712 l 264 712 l 264 434 l 404 434 q 739 719 429 719 q 1069 355 1069 719 q 739 -7 1069 -7 q 403 292 421 -7 l 264 292 l 264 0 l 85 0 z "},"я":{"ha":760,"x_min":17,"x_max":675,"o":"m 495 0 l 495 568 l 323 568 q 267 508 267 568 q 416 389 267 420 l 416 294 l 224 0 l 17 0 l 235 304 q 79 513 79 384 q 309 712 79 712 l 675 712 l 675 0 l 495 0 z "},"ё":{"ha":749,"x_min":41,"x_max":699,"o":"m 375 712 q 699 381 699 712 q 693 293 699 337 l 220 293 q 441 142 220 142 q 657 163 549 142 l 657 20 q 428 0 563 0 q 41 364 41 0 q 375 712 41 712 m 220 418 l 524 418 l 524 423 q 375 571 524 571 q 220 418 233 571 m 558 970 l 558 841 l 412 841 l 412 970 l 558 970 m 328 970 l 328 841 l 182 841 l 182 970 l 328 970 z "},";":{"ha":417,"x_min":68,"x_max":349,"o":"m 349 712 l 349 546 l 170 546 l 170 712 l 349 712 m 349 125 l 248 -170 l 68 -170 l 170 125 l 349 125 z "},"΄":{"ha":450,"x_min":68,"x_max":382,"o":"m 165 970 l 382 970 l 220 794 l 68 794 l 165 970 z "},"΅":{"ha":777,"x_min":68,"x_max":709,"o":"m 709 970 l 709 841 l 563 841 l 563 970 l 709 970 m 214 970 l 214 841 l 68 841 l 68 970 l 214 970 m 321 970 l 538 970 l 376 794 l 224 794 l 321 970 z "},"Ά":{"ha":1059,"x_min":17,"x_max":1042,"o":"m 165 970 l 382 970 l 220 794 l 68 794 l 165 970 z "},"·":{"ha":315,"x_min":68,"x_max":248,"o":"m 248 712 l 248 546 l 68 546 l 68 712 l 248 712 z "},"Έ":{"ha":1052,"x_min":-34,"x_max":987,"o":"m 64 970 l 280 970 l 118 794 l -34 794 l 64 970 m 978 970 l 978 815 l 492 815 l 492 571 l 955 571 l 955 410 l 490 410 l 490 156 l 987 156 l 987 0 l 314 0 l 314 970 l 978 970 z "},"Ή":{"ha":1253,"x_min":-34,"x_max":1152,"o":"m 64 970 l 280 970 l 118 794 l -34 794 l 64 970 m 314 0 l 314 970 l 494 970 l 494 570 l 972 570 l 972 970 l 1152 970 l 1152 0 l 972 0 l 972 414 l 494 414 l 494 0 l 314 0 z "},"Ί":{"ha":595,"x_min":-34,"x_max":494,"o":"m 64 970 l 280 970 l 118 794 l -34 794 l 64 970 m 494 970 l 494 0 l 314 0 l 314 970 l 494 970 z "},"Ό":{"ha":1213,"x_min":-34,"x_max":1145,"o":"m 64 970 l 280 970 l 118 794 l -34 794 l 64 970 m 365 488 q 665 149 365 149 q 958 488 958 149 q 665 821 958 821 q 365 488 365 821 m 178 484 q 665 977 178 977 q 1145 484 1145 977 q 665 -7 1145 -7 q 178 484 200 -7 z "},"Ύ":{"ha":1162,"x_min":-34,"x_max":1206,"o":"m 64 970 l 280 970 l 118 794 l -34 794 l 64 970 m 297 970 l 490 970 l 763 503 l 1019 970 l 1206 970 l 849 339 l 849 0 l 669 0 l 669 339 l 297 970 z "},"Ώ":{"ha":1202,"x_min":-34,"x_max":1121,"o":"m 64 970 l 280 970 l 118 794 l -34 794 l 64 970 m 202 0 l 202 156 l 382 156 q 192 543 192 285 q 656 983 192 983 q 1121 543 1121 983 q 931 156 1121 285 l 1111 156 l 1111 0 l 738 0 l 738 156 q 941 543 941 285 q 656 827 941 827 q 372 543 372 827 q 575 156 372 285 l 575 0 l 202 0 z "},"ΐ":{"ha":383,"x_min":-129,"x_max":512,"o":"m 281 712 l 281 0 l 102 0 l 102 712 l 281 712 m 512 970 l 512 841 l 366 841 l 366 970 l 512 970 m 17 970 l 17 841 l -129 841 l -129 970 l 17 970 m 125 970 l 341 970 l 179 794 l 27 794 l 125 970 z "},"Α":{"ha":1059,"x_min":17,"x_max":1042,"o":"m 201 0 l 17 0 l 429 970 l 622 970 l 1042 0 l 849 0 l 739 264 l 416 264 l 478 420 l 673 420 l 521 785 l 201 0 z "},"Β":{"ha":896,"x_min":102,"x_max":845,"o":"m 102 0 l 102 970 l 556 970 q 833 744 833 970 q 652 507 833 578 q 845 287 845 471 q 542 0 845 0 l 102 0 m 534 156 q 654 278 654 156 q 475 429 654 429 l 421 429 l 421 545 q 645 732 645 583 q 545 814 645 814 l 281 814 l 281 156 l 534 156 z "},"Γ":{"ha":734,"x_min":102,"x_max":734,"o":"m 102 0 l 102 970 l 734 970 l 734 814 l 281 814 l 281 0 l 102 0 z "},"Ε":{"ha":840,"x_min":102,"x_max":775,"o":"m 766 970 l 766 815 l 280 815 l 280 571 l 743 571 l 743 410 l 278 410 l 278 156 l 775 156 l 775 0 l 102 0 l 102 970 l 766 970 z "},"Ζ":{"ha":848,"x_min":85,"x_max":804,"o":"m 804 970 l 804 814 l 288 156 l 804 156 l 804 0 l 85 0 l 85 156 l 623 814 l 98 814 l 98 970 l 804 970 z "},"Η":{"ha":1041,"x_min":102,"x_max":939,"o":"m 102 0 l 102 970 l 281 970 l 281 570 l 760 570 l 760 970 l 939 970 l 939 0 l 760 0 l 760 414 l 281 414 l 281 0 l 102 0 z "},"Θ":{"ha":1129,"x_min":81,"x_max":1048,"o":"m 268 488 q 568 149 268 149 q 861 488 861 149 q 568 821 861 821 q 268 488 268 821 m 81 484 q 568 977 81 977 q 1048 484 1048 977 q 568 -7 1048 -7 q 81 484 81 -7 m 355 578 l 772 578 l 772 422 l 355 422 l 355 578 z "},"Ι":{"ha":383,"x_min":102,"x_max":281,"o":"m 281 970 l 281 0 l 102 0 l 102 970 l 281 970 z "},"Κ":{"ha":973,"x_min":102,"x_max":1007,"o":"m 281 970 l 281 0 l 102 0 l 102 970 l 281 970 m 964 970 l 550 517 l 1007 0 l 758 0 l 383 453 l 383 570 l 744 970 l 964 970 z "},"Λ":{"ha":1059,"x_min":17,"x_max":1042,"o":"m 521 785 l 201 0 l 17 0 l 429 970 l 622 970 l 1042 0 l 849 0 l 521 785 z "},"Μ":{"ha":1221,"x_min":102,"x_max":1119,"o":"m 102 0 l 102 970 l 288 970 l 617 234 l 939 970 l 1119 970 l 1119 0 l 953 0 l 953 675 l 690 0 l 536 0 l 268 675 l 268 0 l 102 0 z "},"Ν":{"ha":1068,"x_min":102,"x_max":966,"o":"m 102 0 l 102 970 l 281 970 l 793 263 l 793 970 l 966 970 l 966 0 l 787 0 l 275 722 l 275 0 l 102 0 z "},"Ξ":{"ha":811,"x_min":68,"x_max":743,"o":"m 68 163 l 743 163 l 743 0 l 68 0 l 68 163 m 68 970 l 743 970 l 743 807 l 68 807 l 68 970 m 109 578 l 703 578 l 703 416 l 109 416 l 109 578 z "},"Ο":{"ha":1102,"x_min":68,"x_max":1034,"o":"m 254 488 q 555 149 254 149 q 848 488 848 149 q 555 821 848 821 q 254 488 254 821 m 68 484 q 555 977 68 977 q 1034 484 1034 977 q 555 -7 1034 -7 q 68 484 90 -7 z "},"Π":{"ha":1061,"x_min":102,"x_max":960,"o":"m 102 0 l 102 970 l 960 970 l 960 0 l 780 0 l 780 814 l 281 814 l 281 0 l 102 0 z "},"Ρ":{"ha":850,"x_min":102,"x_max":833,"o":"m 102 0 l 102 970 l 536 970 q 833 696 833 970 q 427 338 833 400 l 401 498 q 645 691 645 542 q 524 812 645 812 l 281 812 l 281 0 l 102 0 z "},"Σ":{"ha":814,"x_min":68,"x_max":746,"o":"m 68 970 l 746 970 l 746 814 l 271 814 l 556 509 l 271 156 l 746 156 l 746 0 l 68 0 l 68 156 l 349 509 l 68 814 l 68 970 z "},"Τ":{"ha":736,"x_min":0,"x_max":736,"o":"m 736 970 l 736 814 l 458 814 l 458 0 l 278 0 l 278 814 l 0 814 l 0 970 l 736 970 z "},"Υ":{"ha":882,"x_min":17,"x_max":926,"o":"m 17 970 l 210 970 l 483 503 l 739 970 l 926 970 l 569 339 l 569 0 l 389 0 l 389 339 l 17 970 z "},"Φ":{"ha":1169,"x_min":68,"x_max":1101,"o":"m 495 77 q 68 484 68 102 q 495 893 68 868 l 495 970 l 674 970 l 674 894 q 1101 484 1101 871 q 674 76 1101 98 l 674 0 l 495 0 l 495 77 m 495 233 l 495 736 q 254 488 254 712 q 495 233 254 258 m 674 737 l 674 233 q 916 488 916 256 q 674 737 916 715 z "},"Χ":{"ha":1019,"x_min":17,"x_max":1007,"o":"m 399 485 l 17 970 l 244 970 l 512 616 l 780 970 l 1007 970 l 626 485 l 1007 0 l 780 0 l 512 354 l 244 0 l 17 0 l 399 485 z "},"Ψ":{"ha":1119,"x_min":68,"x_max":1051,"o":"m 470 420 l 470 970 l 649 970 l 649 420 q 871 670 871 454 l 871 970 l 1051 970 l 1051 670 q 649 262 1051 297 l 649 0 l 470 0 l 470 262 q 68 670 68 297 l 68 970 l 248 970 l 248 670 q 470 420 248 454 z "},"Ϊ":{"ha":383,"x_min":3,"x_max":380,"o":"m 281 970 l 281 0 l 102 0 l 102 970 l 281 970 m 380 1227 l 380 1099 l 234 1099 l 234 1227 l 380 1227 m 149 1227 l 149 1099 l 3 1099 l 3 1227 l 149 1227 z "},"Ϋ":{"ha":882,"x_min":17,"x_max":926,"o":"m 17 970 l 210 970 l 483 503 l 739 970 l 926 970 l 569 339 l 569 0 l 389 0 l 389 339 l 17 970 m 660 1227 l 660 1099 l 514 1099 l 514 1227 l 660 1227 m 429 1227 l 429 1099 l 283 1099 l 283 1227 l 429 1227 z "},"ά":{"ha":935,"x_min":41,"x_max":901,"o":"m 41 356 q 373 712 41 712 q 661 533 584 712 l 720 712 l 901 712 l 781 354 l 892 0 l 709 0 l 650 197 q 373 0 565 0 q 41 356 42 0 m 220 359 q 373 142 220 142 q 580 359 505 142 q 373 570 505 570 q 220 359 220 570 m 464 970 l 680 970 l 518 794 l 366 794 l 464 970 z "},"έ":{"ha":621,"x_min":51,"x_max":570,"o":"m 570 536 q 353 576 468 576 q 237 507 237 576 q 376 441 237 441 l 509 441 l 509 298 l 374 298 q 231 217 231 298 q 353 136 231 136 q 570 176 468 136 l 570 27 q 353 -7 468 -7 q 51 197 51 -7 q 205 370 51 332 q 58 528 58 403 q 359 719 58 719 q 570 685 468 719 l 570 536 m 303 970 l 519 970 l 357 794 l 205 794 l 303 970 z "},"ή":{"ha":838,"x_min":85,"x_max":753,"o":"m 85 0 l 85 712 l 224 712 l 246 608 q 479 712 349 712 q 753 449 753 712 l 753 -258 l 573 -258 l 573 449 q 442 567 573 567 q 264 497 348 567 l 264 0 l 85 0 m 412 970 l 628 970 l 466 794 l 314 794 l 412 970 z "},"ί":{"ha":383,"x_min":87,"x_max":401,"o":"m 281 712 l 281 0 l 102 0 l 102 712 l 281 712 m 184 970 l 401 970 l 239 794 l 87 794 l 184 970 z "},"ΰ":{"ha":821,"x_min":75,"x_max":746,"o":"m 75 290 l 75 712 l 254 712 l 254 290 q 410 129 254 129 q 566 290 566 129 l 566 712 l 746 712 l 746 290 q 410 -14 746 -14 q 75 290 75 -14 m 731 970 l 731 841 l 585 841 l 585 970 l 731 970 m 236 970 l 236 841 l 90 841 l 90 970 l 236 970 m 344 970 l 560 970 l 398 794 l 246 794 l 344 970 z "},"α":{"ha":935,"x_min":41,"x_max":901,"o":"m 41 356 q 373 712 41 712 q 661 533 584 712 l 720 712 l 901 712 l 781 354 l 892 0 l 709 0 l 650 197 q 373 0 565 0 q 41 356 42 0 m 220 359 q 373 142 220 142 q 580 359 505 142 q 373 570 505 570 q 220 359 220 570 z "},"β":{"ha":876,"x_min":85,"x_max":825,"o":"m 85 -245 l 85 591 q 474 970 85 970 q 779 715 779 970 q 555 515 779 557 q 825 258 825 490 q 490 -1 825 -1 q 326 39 397 -1 l 326 182 q 491 141 398 141 q 645 258 645 141 q 393 441 645 440 l 393 562 q 609 715 609 598 q 463 827 609 827 q 264 589 264 827 l 264 -245 l 85 -245 z "},"γ":{"ha":739,"x_min":17,"x_max":722,"o":"m 17 712 l 203 712 l 368 185 l 536 712 l 722 712 l 454 0 l 454 -258 l 274 -258 l 274 0 l 17 712 z "},"δ":{"ha":814,"x_min":41,"x_max":773,"o":"m 773 366 q 402 -7 773 -7 q 41 359 41 -7 q 390 692 41 692 q 118 827 285 789 l 118 970 l 705 970 l 705 827 l 388 827 q 773 366 764 648 m 593 363 q 402 563 593 563 q 218 359 218 563 q 403 136 218 136 q 593 363 593 136 z "},"ε":{"ha":621,"x_min":51,"x_max":570,"o":"m 570 536 q 353 576 468 576 q 237 507 237 576 q 376 441 237 441 l 509 441 l 509 298 l 374 298 q 231 217 231 298 q 353 136 231 136 q 570 176 468 136 l 570 27 q 353 -7 468 -7 q 51 197 51 -7 q 205 370 51 332 q 58 528 58 403 q 359 719 58 719 q 570 685 468 719 l 570 536 z "},"ζ":{"ha":718,"x_min":68,"x_max":701,"o":"m 205 970 l 701 970 l 701 827 q 244 286 244 574 q 385 142 244 142 l 467 142 q 694 -29 694 142 q 423 -271 694 -189 l 355 -151 q 522 -51 522 -90 q 471 0 522 0 l 389 0 q 68 283 68 0 q 482 827 68 587 l 205 827 l 205 970 z "},"η":{"ha":838,"x_min":85,"x_max":753,"o":"m 85 0 l 85 712 l 224 712 l 246 608 q 479 712 349 712 q 753 449 753 712 l 753 -258 l 573 -258 l 573 449 q 442 567 573 567 q 264 497 348 567 l 264 0 l 85 0 z "},"θ":{"ha":844,"x_min":54,"x_max":790,"o":"m 242 434 q 426 136 256 136 q 602 434 589 136 l 242 434 m 600 576 q 426 834 579 834 q 244 576 267 834 l 600 576 m 54 484 q 426 977 54 977 q 790 484 790 977 q 426 -7 790 -7 q 54 484 54 -7 z "},"ι":{"ha":383,"x_min":102,"x_max":281,"o":"m 281 712 l 281 0 l 102 0 l 102 712 l 281 712 z "},"κ":{"ha":851,"x_min":85,"x_max":821,"o":"m 804 712 l 505 389 l 821 0 l 599 0 l 346 345 l 346 420 l 598 712 l 804 712 m 264 712 l 264 0 l 85 0 l 85 712 l 264 712 z "},"λ":{"ha":733,"x_min":0,"x_max":733,"o":"m 273 716 q 99 886 218 834 l 186 1009 q 437 733 359 927 l 733 0 l 539 0 l 357 513 l 184 0 l 0 0 l 273 716 z "},"ν":{"ha":732,"x_min":0,"x_max":732,"o":"m 0 712 l 190 712 l 363 214 l 543 712 l 732 712 l 443 0 l 272 0 l 0 712 z "},"ξ":{"ha":711,"x_min":68,"x_max":694,"o":"m 418 970 l 624 970 l 624 827 l 418 827 q 309 736 309 827 q 419 646 309 646 l 617 646 l 617 503 l 426 503 q 244 299 244 503 q 365 142 244 142 l 460 142 q 694 -50 694 142 q 423 -271 694 -189 l 349 -151 q 522 -51 522 -90 q 464 0 522 0 l 368 0 q 68 296 68 0 q 250 575 68 508 q 129 761 129 612 q 418 970 129 970 z "},"ο":{"ha":814,"x_min":41,"x_max":773,"o":"m 220 359 q 407 142 220 142 q 593 359 593 142 q 407 570 593 570 q 220 359 220 570 m 41 356 q 407 712 41 712 q 773 356 773 712 q 407 1 773 1 q 41 356 42 1 z "},"ρ":{"ha":812,"x_min":54,"x_max":771,"o":"m 234 193 q 385 149 288 149 q 593 373 593 149 q 407 567 593 567 q 234 373 234 567 l 234 193 m 54 373 q 408 712 54 712 q 771 373 771 712 q 386 0 771 0 q 234 41 294 0 l 234 -258 l 54 -258 l 54 373 z "},"ς":{"ha":670,"x_min":41,"x_max":646,"o":"m 620 536 q 427 570 517 570 q 217 380 217 570 q 322 227 217 263 l 416 196 q 646 -37 646 125 q 321 -258 646 -258 l 321 -115 q 468 -40 468 -115 q 399 41 468 18 l 277 83 q 41 378 41 150 q 427 712 41 712 q 620 678 517 712 l 620 536 z "},"σ":{"ha":859,"x_min":41,"x_max":859,"o":"m 220 359 q 407 142 220 142 q 593 359 593 142 q 414 570 593 570 q 220 359 220 570 m 41 356 q 414 712 41 712 l 859 712 l 859 570 l 682 570 q 773 356 773 503 q 407 1 773 1 q 41 356 42 1 z "},"τ":{"ha":559,"x_min":0,"x_max":525,"o":"m 0 712 l 525 712 l 525 570 l 338 570 l 338 251 q 468 142 338 142 q 491 142 479 142 l 491 0 q 431 -3 460 -3 q 159 251 159 -3 l 159 570 l 0 570 l 0 712 z "},"υ":{"ha":821,"x_min":75,"x_max":746,"o":"m 75 290 l 75 712 l 254 712 l 254 290 q 410 129 254 129 q 566 290 566 129 l 566 712 l 746 712 l 746 290 q 410 -14 746 -14 q 75 290 75 -14 z "},"φ":{"ha":1075,"x_min":41,"x_max":1034,"o":"m 163 712 l 356 712 q 220 373 220 559 q 441 129 220 142 l 441 444 q 735 712 441 712 q 1034 373 1034 712 q 621 -14 1034 0 l 621 -258 l 441 -258 l 441 -14 q 41 373 41 0 q 163 712 41 559 m 621 129 q 854 373 854 142 q 737 570 854 570 q 621 444 621 570 l 621 129 z "},"χ":{"ha":800,"x_min":17,"x_max":783,"o":"m 304 227 l 17 712 l 210 712 l 400 377 l 590 712 l 777 712 l 494 233 l 783 -258 l 590 -258 l 397 83 l 203 -258 l 17 -258 l 304 227 z "},"ψ":{"ha":1105,"x_min":68,"x_max":1038,"o":"m 463 135 l 463 712 l 643 712 l 643 135 q 858 365 858 167 l 858 712 l 1038 712 l 1038 365 q 643 -10 1038 24 l 643 -258 l 463 -258 l 463 -10 q 68 365 68 24 l 68 712 l 248 712 l 248 365 q 463 135 248 167 z "},"ω":{"ha":1075,"x_min":51,"x_max":1024,"o":"m 139 712 l 319 712 q 231 373 231 559 q 322 156 231 156 q 448 559 448 156 l 627 559 q 753 156 627 156 q 844 373 844 156 q 756 712 844 559 l 936 712 q 1024 373 1024 559 q 753 0 1024 0 q 536 196 593 0 q 322 0 481 0 q 51 373 51 0 q 139 712 51 559 z "},"ϊ":{"ha":383,"x_min":3,"x_max":380,"o":"m 281 712 l 281 0 l 102 0 l 102 712 l 281 712 m 380 970 l 380 841 l 234 841 l 234 970 l 380 970 m 149 970 l 149 841 l 3 841 l 3 970 l 149 970 z "},"ϋ":{"ha":821,"x_min":75,"x_max":746,"o":"m 75 290 l 75 712 l 254 712 l 254 290 q 410 129 254 129 q 566 290 566 129 l 566 712 l 746 712 l 746 290 q 410 -14 746 -14 q 75 290 75 -14 m 599 970 l 599 841 l 453 841 l 453 970 l 599 970 m 368 970 l 368 841 l 222 841 l 222 970 l 368 970 z "},"ό":{"ha":814,"x_min":41,"x_max":773,"o":"m 220 359 q 407 142 220 142 q 593 359 593 142 q 407 570 593 570 q 220 359 220 570 m 41 356 q 407 712 41 712 q 773 356 773 712 q 407 1 773 1 q 41 356 42 1 m 400 970 l 616 970 l 454 794 l 302 794 l 400 970 z "},"ύ":{"ha":821,"x_min":75,"x_max":746,"o":"m 75 290 l 75 712 l 254 712 l 254 290 q 410 129 254 129 q 566 290 566 129 l 566 712 l 746 712 l 746 290 q 410 -14 746 -14 q 75 290 75 -14 m 404 970 l 620 970 l 458 794 l 306 794 l 404 970 z "},"ώ":{"ha":1075,"x_min":51,"x_max":1024,"o":"m 139 712 l 319 712 q 231 373 231 559 q 322 156 231 156 q 448 559 448 156 l 627 559 q 753 156 627 156 q 844 373 844 156 q 756 712 844 559 l 936 712 q 1024 373 1024 559 q 753 0 1024 0 q 536 196 593 0 q 322 0 481 0 q 51 373 51 0 q 139 712 51 559 m 530 970 l 747 970 l 585 794 l 433 794 l 530 970 z "},"":{"ha":1239,"x_min":85,"x_max":1154,"o":"m 536 712 l 536 747 q 857 1019 536 1019 q 1086 971 971 1019 l 1086 829 q 869 876 982 876 q 716 752 716 876 l 716 712 l 1154 712 l 1154 0 l 975 0 l 975 570 l 716 570 l 716 0 l 536 0 l 536 570 l 264 570 l 264 0 l 85 0 l 85 747 q 371 1005 85 1005 q 486 985 431 1005 l 486 842 q 377 863 442 863 q 264 752 264 863 l 264 712 l 536 712 z "},"":{"ha":1259,"x_min":85,"x_max":1175,"o":"m 536 570 l 264 570 l 264 0 l 85 0 l 85 747 q 371 1005 85 1005 q 486 985 431 1005 l 486 842 q 377 863 442 863 q 264 752 264 863 l 264 712 l 536 712 l 536 745 q 890 1017 536 1017 q 1175 970 1025 1017 l 1175 -1 l 995 -1 l 995 863 q 883 875 941 875 q 716 751 716 875 l 716 711 l 876 711 l 876 568 l 716 568 l 716 -1 l 536 -1 l 536 570 z "},"":{"ha":954,"x_min":85,"x_max":1015,"o":"m 536 570 l 264 570 l 264 0 l 85 0 l 85 747 q 371 1005 85 1005 q 486 985 431 1005 l 486 842 q 377 863 442 863 q 264 752 264 863 l 264 712 l 536 712 q 857 1005 536 1005 q 1015 978 944 1005 l 1015 836 q 869 863 948 863 q 716 712 716 863 l 930 712 l 930 570 l 716 570 l 716 0 l 536 0 l 536 570 z "},"":{"ha":787,"x_min":85,"x_max":703,"o":"m 523 570 l 264 570 l 264 0 l 85 0 l 85 747 q 405 1019 85 1019 q 635 971 519 1019 l 635 829 q 418 876 530 876 q 264 752 264 876 l 264 712 l 703 712 l 703 54 q 579 -297 703 -161 l 438 -199 q 523 54 523 -107 l 523 570 z "},"":{"ha":1239,"x_min":85,"x_max":1154,"o":"m 536 570 l 264 570 l 264 0 l 85 0 l 85 747 q 371 1005 85 1005 q 486 985 431 1005 l 486 842 q 377 863 442 863 q 264 752 264 863 l 264 712 l 536 712 l 536 747 q 857 1019 536 1019 q 1086 971 971 1019 l 1086 829 q 869 876 982 876 q 716 752 716 876 l 716 712 l 1154 712 l 1154 54 q 1031 -297 1154 -161 l 890 -199 q 975 54 975 -107 l 975 570 l 716 570 l 716 0 l 536 0 l 536 570 z "},"":{"ha":1257,"x_min":85,"x_max":1206,"o":"m 723 526 l 723 165 q 866 145 785 145 q 1029 375 1029 145 q 888 563 1029 563 q 723 526 798 563 m 543 864 q 431 876 489 876 q 264 752 264 876 l 264 712 l 424 712 l 424 570 l 264 570 l 264 0 l 85 0 l 85 747 q 439 1019 85 1019 q 723 971 574 1019 l 723 678 q 889 712 804 712 q 1206 370 1206 712 q 859 0 1206 0 q 543 29 712 0 l 543 864 z "},"":{"ha":1709,"x_min":85,"x_max":1658,"o":"m 1175 526 l 1175 165 q 1318 145 1236 145 q 1480 375 1480 145 q 1340 563 1480 563 q 1175 526 1249 563 m 536 570 l 264 570 l 264 0 l 85 0 l 85 747 q 371 1005 85 1005 q 486 985 431 1005 l 486 842 q 377 863 442 863 q 264 752 264 863 l 264 712 l 536 712 l 536 745 q 890 1017 536 1017 q 1175 970 1025 1017 l 1175 678 q 1341 712 1255 712 q 1658 370 1658 712 q 1310 0 1658 0 q 995 29 1164 0 l 995 863 q 883 875 941 875 q 716 751 716 875 l 716 711 l 876 711 l 876 568 l 716 568 l 716 -1 l 536 -1 l 536 570 z "},"":{"ha":1296,"x_min":85,"x_max":1211,"o":"m 543 864 q 431 876 489 876 q 264 752 264 876 l 264 712 l 424 712 l 424 570 l 264 570 l 264 0 l 85 0 l 85 747 q 439 1019 85 1019 q 723 971 574 1019 l 723 621 q 938 712 807 712 q 1211 447 1211 712 l 1211 0 l 1031 0 l 1031 449 q 901 567 1031 567 q 723 477 806 567 l 723 0 l 543 0 l 543 864 z "},"":{"ha":1748,"x_min":85,"x_max":1663,"o":"m 536 570 l 264 570 l 264 0 l 85 0 l 85 747 q 371 1005 85 1005 q 486 985 431 1005 l 486 842 q 377 863 442 863 q 264 752 264 863 l 264 712 l 536 712 l 536 745 q 890 1017 536 1017 q 1175 970 1025 1017 l 1175 621 q 1390 712 1259 712 q 1663 447 1663 712 l 1663 0 l 1483 0 l 1483 449 q 1352 567 1483 567 q 1175 477 1258 567 l 1175 -1 l 995 -1 l 995 863 q 883 875 941 875 q 716 751 716 875 l 716 711 l 876 711 l 876 568 l 716 568 l 716 -1 l 536 -1 l 536 570 z "},"":{"ha":1286,"x_min":85,"x_max":1253,"o":"m 543 864 q 431 876 489 876 q 264 752 264 876 l 264 712 l 424 712 l 424 570 l 264 570 l 264 0 l 85 0 l 85 747 q 439 1019 85 1019 q 723 971 574 1019 l 723 656 q 969 712 833 712 q 1228 500 1228 712 q 1038 280 1228 357 l 1253 0 l 1040 0 l 813 302 l 813 358 q 1048 487 1048 379 q 933 570 1048 570 q 723 506 829 570 l 723 0 l 543 0 l 543 864 z "},"":{"ha":1738,"x_min":85,"x_max":1704,"o":"m 536 570 l 264 570 l 264 0 l 85 0 l 85 747 q 371 1005 85 1005 q 486 985 431 1005 l 486 842 q 377 863 442 863 q 264 752 264 863 l 264 712 l 536 712 l 536 745 q 890 1017 536 1017 q 1175 970 1025 1017 l 1175 656 q 1421 712 1285 712 q 1680 500 1680 712 q 1490 280 1680 357 l 1704 0 l 1491 0 l 1265 302 l 1265 358 q 1500 487 1500 379 q 1385 570 1500 570 q 1175 506 1281 570 l 1175 -1 l 995 -1 l 995 863 q 883 875 941 875 q 716 751 716 875 l 716 711 l 876 711 l 876 568 l 716 568 l 716 -1 l 536 -1 l 536 570 z "},"":{"ha":865,"x_min":64,"x_max":800,"o":"m 251 359 q 436 136 251 136 q 614 359 614 136 q 436 576 614 576 q 251 359 251 576 m 64 355 q 436 719 64 719 q 800 355 800 719 q 436 -7 800 -7 q 64 355 64 -7 z "},"":{"ha":579,"x_min":51,"x_max":576,"o":"m 227 142 l 227 543 l 51 543 l 51 651 l 407 719 l 407 142 l 576 142 l 576 0 l 51 0 l 51 142 l 227 142 z "},"":{"ha":746,"x_min":58,"x_max":695,"o":"m 58 0 l 58 142 q 481 495 481 330 q 346 576 481 576 q 71 502 203 576 l 71 651 q 346 719 203 719 q 661 495 661 719 q 304 142 661 298 l 695 142 l 695 0 l 58 0 z "},"":{"ha":753,"x_min":61,"x_max":675,"o":"m 61 671 q 319 712 197 712 q 675 454 675 712 q 547 268 675 328 q 675 81 675 217 q 319 -190 675 -190 q 61 -149 197 -190 l 61 0 q 319 -47 197 -47 q 495 81 495 -47 q 365 197 495 197 l 163 197 l 163 339 l 363 339 q 495 454 495 339 q 319 570 495 570 q 61 522 197 570 l 61 671 z "},"":{"ha":790,"x_min":41,"x_max":763,"o":"m 663 -190 l 483 -190 l 483 20 l 41 20 l 41 162 l 383 711 l 583 711 l 226 162 l 483 162 l 483 446 l 663 446 l 663 162 l 763 111 l 763 20 l 663 20 l 663 -190 z "},"":{"ha":777,"x_min":92,"x_max":722,"o":"m 119 712 l 677 712 l 677 570 l 273 570 l 264 365 q 370 380 316 380 q 722 102 722 380 q 329 -197 722 -197 q 105 -156 207 -197 l 105 -7 q 336 -54 207 -54 q 543 95 543 -54 q 356 237 543 237 q 92 203 224 237 l 119 712 z "},"":{"ha":858,"x_min":75,"x_max":793,"o":"m 75 353 q 534 931 75 709 l 606 798 q 298 568 408 719 q 458 610 367 610 q 793 312 793 610 q 425 -7 793 -7 q 75 353 75 -7 m 248 350 q 438 136 248 136 q 616 312 616 136 q 439 468 616 468 q 267 435 341 468 q 248 350 248 401 z "},"":{"ha":719,"x_min":20,"x_max":671,"o":"m 20 712 l 671 712 l 671 570 l 243 -190 l 45 -190 l 488 570 l 20 570 l 20 712 z "},"":{"ha":848,"x_min":71,"x_max":777,"o":"m 71 260 q 242 478 71 418 q 98 684 98 536 q 424 911 98 911 q 749 684 749 911 q 602 478 749 536 q 777 260 777 418 q 424 -7 777 -7 q 71 260 71 -7 m 427 543 q 570 663 570 543 q 418 766 570 766 q 278 663 278 766 q 427 543 278 543 m 427 136 q 597 270 597 136 q 418 400 597 400 q 251 270 251 400 q 427 136 251 136 z "},"":{"ha":861,"x_min":64,"x_max":783,"o":"m 783 357 q 323 -221 783 1 l 252 -87 q 559 142 450 -9 q 399 100 491 100 q 64 398 64 100 q 433 717 64 717 q 783 357 783 717 m 610 360 q 420 574 610 574 q 241 398 241 574 q 419 242 241 242 q 591 275 517 242 q 610 360 610 309 z "},"":{"ha":770,"x_min":51,"x_max":746,"o":"m 376 712 q 548 678 475 712 l 647 712 l 746 712 l 746 570 l 654 570 q 685 466 684 516 q 368 214 685 214 q 263 228 304 214 q 231 163 231 198 q 271 129 231 129 l 484 129 q 726 -51 726 129 q 358 -271 726 -271 q 51 -210 194 -271 l 51 -54 q 361 -129 196 -129 q 553 -51 553 -129 q 486 -14 553 -14 l 219 -14 q 61 118 61 -14 q 156 272 61 209 q 58 460 58 339 q 376 712 58 712 m 237 465 q 373 359 237 359 q 505 465 505 359 q 373 570 505 570 q 237 465 237 570 z "},"":{"ha":770,"x_min":51,"x_max":746,"o":"m 376 712 q 548 678 475 712 l 647 712 l 746 712 l 746 570 l 654 570 q 685 466 684 516 q 368 214 685 214 q 263 228 304 214 q 231 163 231 198 q 271 129 231 129 l 484 129 q 726 -51 726 129 q 358 -271 726 -271 q 51 -210 194 -271 l 51 -54 q 361 -129 196 -129 q 553 -51 553 -129 q 486 -14 553 -14 l 219 -14 q 61 118 61 -14 q 156 272 61 209 q 58 460 58 339 q 376 712 58 712 m 237 465 q 373 359 237 359 q 505 465 505 359 q 373 570 505 570 q 237 465 237 570 m 328 970 l 430 970 l 549 793 l 427 793 l 379 882 l 332 793 l 210 793 l 328 970 z "},"":{"ha":770,"x_min":51,"x_max":746,"o":"m 376 712 q 548 678 475 712 l 647 712 l 746 712 l 746 570 l 654 570 q 685 466 684 516 q 368 214 685 214 q 263 228 304 214 q 231 163 231 198 q 271 129 231 129 l 484 129 q 726 -51 726 129 q 358 -271 726 -271 q 51 -210 194 -271 l 51 -54 q 361 -129 196 -129 q 553 -51 553 -129 q 486 -14 553 -14 l 219 -14 q 61 118 61 -14 q 156 272 61 209 q 58 460 58 339 q 376 712 58 712 m 237 465 q 373 359 237 359 q 505 465 505 359 q 373 570 505 570 q 237 465 237 570 m 170 970 l 288 970 q 370 875 288 875 q 451 970 451 875 l 570 970 q 370 773 570 773 q 170 970 170 773 z "},"":{"ha":770,"x_min":51,"x_max":746,"o":"m 376 712 q 548 678 475 712 l 647 712 l 746 712 l 746 570 l 654 570 q 685 466 684 516 q 368 214 685 214 q 263 228 304 214 q 231 163 231 198 q 271 129 231 129 l 484 129 q 726 -51 726 129 q 358 -271 726 -271 q 51 -210 194 -271 l 51 -54 q 361 -129 196 -129 q 553 -51 553 -129 q 486 -14 553 -14 l 219 -14 q 61 118 61 -14 q 156 272 61 209 q 58 460 58 339 q 376 712 58 712 m 237 465 q 373 359 237 359 q 505 465 505 359 q 373 570 505 570 q 237 465 237 570 m 452 970 l 452 821 l 293 821 l 293 970 l 452 970 z "},"":{"ha":770,"x_min":51,"x_max":746,"o":"m 376 712 q 548 678 475 712 l 647 712 l 746 712 l 746 570 l 654 570 q 685 466 684 516 q 368 214 685 214 q 263 228 304 214 q 231 163 231 198 q 271 129 231 129 l 484 129 q 726 -51 726 129 q 358 -271 726 -271 q 51 -210 194 -271 l 51 -54 q 361 -129 196 -129 q 553 -51 553 -129 q 486 -14 553 -14 l 219 -14 q 61 118 61 -14 q 156 272 61 209 q 58 460 58 339 q 376 712 58 712 m 237 465 q 373 359 237 359 q 505 465 505 359 q 373 570 505 570 q 237 465 237 570 m 545 970 l 443 780 l 263 780 l 365 970 l 545 970 z "},"":{"ha":785,"x_min":85,"x_max":819,"o":"m 808 712 l 503 391 l 819 0 l 590 0 l 330 342 l 330 412 l 592 712 l 808 712 m 85 0 l 85 970 l 264 970 l 264 0 l 85 0 z "},"":{"ha":785,"x_min":85,"x_max":819,"o":"m 808 712 l 503 391 l 819 0 l 590 0 l 330 342 l 330 412 l 592 712 l 808 712 m 85 0 l 85 970 l 264 970 l 264 0 l 85 0 m 513 -68 l 411 -258 l 231 -258 l 333 -68 l 513 -68 z "},"":{"ha":1052,"x_min":102,"x_max":1018,"o":"m 102 0 l 102 624 q 573 983 102 983 q 963 922 758 983 l 963 773 l 708 561 q 1018 298 1018 557 q 642 -1 1018 -1 q 431 46 536 -1 l 431 202 q 644 155 537 155 q 831 298 831 155 q 652 415 831 414 l 498 415 l 498 549 l 789 800 q 573 827 691 827 q 281 624 281 827 l 281 0 l 102 0 z "}}}
